<svg id="Capa_1" enable-background="new 0 0 512 512" height="512" viewBox="0 0 512 512" width="512" xmlns="http://www.w3.org/2000/svg"><g><path d="m412 436h-312c-55.14 0-100-44.86-100-100v-160c0-55.14 44.86-100 100-100h312c55.14 0 100 44.86 100 100v160c0 55.14-44.86 100-100 100zm-312-320c-33.084 0-60 26.916-60 60v160c0 33.084 26.916 60 60 60h312c33.084 0 60-26.916 60-60v-160c0-33.084-26.916-60-60-60z"/><path d="m217.863 302.321c-.076-.063-.152-.126-.228-.19l-130.581-110.886c-8.419-7.15-9.449-19.771-2.299-28.191 7.149-8.419 19.771-9.449 28.191-2.299l130.448 110.773c7.35 5.982 17.879 5.969 25.213 0l130.448-110.773c8.419-7.15 21.04-6.12 28.191 2.299 7.149 8.42 6.12 21.041-2.299 28.191l-130.582 110.886c-.076.064-.151.127-.228.19-22.134 18.238-54.166 18.217-76.274 0z"/></g></svg>