<svg id="Capa_1" enable-background="new 0 0 512 512" height="512" viewBox="0 0 512 512" width="512" xmlns="http://www.w3.org/2000/svg"><g><path d="m316 512h-120c-55.14 0-100-44.86-100-100v-312c0-55.14 44.86-100 100-100h120c55.14 0 100 44.86 100 100v312c0 55.14-44.86 100-100 100zm-120-472c-33.084 0-60 26.916-60 60v312c0 33.084 26.916 60 60 60h120c33.084 0 60-26.916 60-60v-312c0-33.084-26.916-60-60-60z"/><path d="m276 432h-40c-11.046 0-20-8.954-20-20s8.954-20 20-20h40c11.046 0 20 8.954 20 20s-8.954 20-20 20z"/><path d="m276 120h-40c-11.046 0-20-8.954-20-20s8.954-20 20-20h40c11.046 0 20 8.954 20 20s-8.954 20-20 20z"/></g></svg>