<svg id="Capa_1" enable-background="new 0 0 512 512" height="512" viewBox="0 0 512 512" width="512" xmlns="http://www.w3.org/2000/svg"><g><path d="m296 432h-80c-33.084 0-60-26.916-60-60 0-89.01-80-83.666-80-192 0-99.514 80.47-180 180-180 99.513 0 180 80.471 180 180 0 107.489-80 103.679-80 192 0 33.084-26.916 60-60 60zm-40-392c-77.196 0-140 62.804-140 140 0 89.01 80 83.666 80 192 0 11.028 8.972 20 20 20h80c11.028 0 20-8.972 20-20 0-107.489 80-103.679 80-192 0-77.196-62.804-140-140-140z"/><path d="m296 512h-80c-11.046 0-20-8.954-20-20s8.954-20 20-20h80c11.046 0 20 8.954 20 20s-8.954 20-20 20z"/><path d="m256 280c-5.119 0-10.237-1.953-14.142-5.858l-40-40c-7.811-7.811-7.811-20.474 0-28.284s20.474-7.811 28.284 0l25.858 25.858 25.857-25.858c7.811-7.811 20.475-7.811 28.285 0s7.811 20.474 0 28.284l-40 40c-3.905 3.905-9.023 5.858-14.142 5.858z"/><path d="m256 320c-11.046 0-20-8.954-20-20v-40c0-11.046 8.954-20 20-20s20 8.954 20 20v40c0 11.046-8.954 20-20 20z"/></g></svg>