<svg id="Capa_1" enable-background="new 0 0 512 512" height="512" viewBox="0 0 512 512" width="512" xmlns="http://www.w3.org/2000/svg"><g><path d="m412 476h-312c-55.141 0-100-44.86-100-100v-240c0-55.14 44.859-100 100-100h80c48.291 0 88.698 34.412 97.991 80h134.009c55.141 0 100 44.86 100 100v160c0 55.14-44.859 100-100 100zm-312-400c-33.084 0-60 26.916-60 60v240c0 33.084 26.916 60 60 60h312c33.084 0 60-26.916 60-60v-160c0-33.084-26.916-60-60-60h-152c-11.046 0-20-8.954-20-20 0-33.084-26.916-60-60-60z"/><path d="m180 156h-80c-11.046 0-20-8.954-20-20s8.954-20 20-20h80c11.046 0 20 8.954 20 20s-8.954 20-20 20z"/></g></svg>