<svg id="Capa_1" enable-background="new 0 0 512 512" height="512" viewBox="0 0 512 512" width="512" xmlns="http://www.w3.org/2000/svg"><g><path d="m256 356c-55.141 0-100-44.86-100-100s44.859-100 100-100 100 44.86 100 100-44.859 100-100 100zm0-160c-33.084 0-60 26.916-60 60s26.916 60 60 60 60-26.916 60-60-26.916-60-60-60z"/><path d="m256 436c-103.398 0-203.089-92.242-252.795-169.141-4.273-6.609-4.273-15.109 0-21.718 52.079-80.571 152.285-169.141 252.795-169.141 103.399 0 203.089 92.241 252.795 169.141 4.273 6.609 4.273 15.109 0 21.718-52.079 80.571-152.285 169.141-252.795 169.141zm-211.585-180.015c25.337 34.6 110.815 140.015 211.585 140.015 101.018 0 186.291-105.356 211.584-139.984-25.348-34.616-110.821-140.016-211.584-140.016-101.018 0-186.291 105.356-211.585 139.985z"/></g></svg>