<svg id="Capa_1" enable-background="new 0 0 512 512" height="512" viewBox="0 0 512 512" width="512" xmlns="http://www.w3.org/2000/svg"><g><path d="m436 260c0-11.046-8.954-20-20-20s-20 8.954-20 20c0 77.196-62.804 140-140 140s-140-62.804-140-140c0-11.046-8.954-20-20-20s-20 8.954-20 20c0 92.492 70.126 168.901 160 178.883v33.117h-60c-11.046 0-20 8.954-20 20s8.954 20 20 20h160c11.046 0 20-8.954 20-20s-8.954-20-20-20h-60v-33.117c89.874-9.982 160-86.391 160-178.883z"/><path d="m256 360c-55.14 0-100-44.86-100-100v-160c0-55.14 44.86-100 100-100s100 44.86 100 100v160c0 55.14-44.86 100-100 100zm0-320c-33.084 0-60 26.916-60 60v160c0 33.084 26.916 60 60 60s60-26.916 60-60v-160c0-33.084-26.916-60-60-60z"/><path d="m96 200c-11.046 0-20-8.954-20-20v-40c0-11.046 8.954-20 20-20s20 8.954 20 20v40c0 11.046-8.954 20-20 20z"/><path d="m20 240c-11.046 0-20-8.954-20-20v-120c0-11.046 8.954-20 20-20s20 8.954 20 20v120c0 11.046-8.954 20-20 20z"/><path d="m416 200c-11.046 0-20-8.954-20-20v-40c0-11.046 8.954-20 20-20s20 8.954 20 20v40c0 11.046-8.954 20-20 20z"/><path d="m492 240c-11.046 0-20-8.954-20-20v-120c0-11.046 8.954-20 20-20s20 8.954 20 20v120c0 11.046-8.954 20-20 20z"/></g></svg>