<svg id="Capa_1" enable-background="new 0 0 512 512" height="512" viewBox="0 0 512 512" width="512" xmlns="http://www.w3.org/2000/svg"><g><path d="m252 512c-17.698 0-34.404-7.757-45.836-21.281l-83.446-98.719h-22.718c-55.14 0-100-44.86-100-100v-72c0-55.14 44.86-100 100-100h22.718l83.446-98.719c11.432-13.524 28.139-21.281 45.836-21.281 33.084 0 60 26.916 60 60v392c0 33.084-26.916 60-60 60zm-152-352c-33.084 0-60 26.916-60 60v72c0 33.084 26.916 60 60 60h32c5.887 0 11.474 2.593 15.274 7.089l89.438 105.808c3.816 4.514 9.388 7.103 15.288 7.103 11.028 0 20-8.972 20-20v-392c0-11.028-8.972-20-20-20-5.899 0-11.472 2.589-15.288 7.104l-89.438 105.807c-3.8 4.496-9.388 7.089-15.274 7.089z"/><path d="m372 396c-11.046 0-20-8.954-20-20s8.954-20 20-20c55.14 0 100-44.86 100-100s-44.86-100-100-100c-11.046 0-20-8.954-20-20s8.954-20 20-20c77.196 0 140 62.804 140 140s-62.804 140-140 140z"/><path d="m372 316c-11.046 0-20-8.954-20-20s8.954-20 20-20c11.028 0 20-8.972 20-20s-8.972-20-20-20c-11.046 0-20-8.954-20-20s8.954-20 20-20c33.084 0 60 26.916 60 60s-26.916 60-60 60z"/><path d="m132 312c-11.046 0-20-8.954-20-20v-72c0-11.046 8.954-20 20-20s20 8.954 20 20v72c0 11.046-8.954 20-20 20z"/></g></svg>