<svg id="Capa_1" enable-background="new 0 0 512.02 512.02" height="512" viewBox="0 0 512.02 512.02" width="512" xmlns="http://www.w3.org/2000/svg"><g><path d="m256.01 360c-99.252 0-180-80.748-180-180s80.748-180 180-180 180 80.748 180 180-80.748 180-180 180zm0-320c-77.196 0-140 62.804-140 140s62.804 140 140 140 140-62.804 140-140-62.804-140-140-140z"/><path d="m327.066 509.888-71.056-35.528-71.056 35.528c-13.273 6.636-28.944-3.025-28.944-17.888v-85.707c0-11.046 8.954-20 20-20s20 8.954 20 20v53.346l51.056-25.528c5.631-2.815 12.258-2.815 17.889 0l51.056 25.528v-53.346c0-11.046 8.954-20 20-20s20 8.954 20 20v85.707c-.001 14.925-15.73 24.496-28.945 17.888z"/><path d="m293.726 262.424-37.716-19.829-37.716 19.829c-14.646 7.699-31.817-4.769-29.019-21.083l7.203-41.997-30.513-29.743c-11.848-11.549-5.296-31.734 11.084-34.114l42.168-6.127 18.858-38.21c7.323-14.837 28.544-14.843 35.869 0l18.858 38.21 42.168 6.127c16.373 2.379 22.939 22.56 11.084 34.114l-30.514 29.743 7.203 41.997c2.809 16.367-14.444 28.744-29.017 21.083zm-70.821-93.18 9.023 8.795c4.713 4.595 6.864 11.215 5.751 17.703l-2.13 12.419 11.154-5.864c5.826-3.063 12.788-3.063 18.614 0l11.153 5.864-2.13-12.419c-1.112-6.488 1.039-13.108 5.752-17.703l9.023-8.796-12.47-1.812c-6.514-.947-12.146-5.038-15.059-10.941l-5.577-11.3-5.577 11.3c-2.913 5.903-8.544 9.994-15.059 10.941z"/></g></svg>