<svg id="Capa_1" enable-background="new 0 0 512.005 512.005" height="512" viewBox="0 0 512.005 512.005" width="512" xmlns="http://www.w3.org/2000/svg"><g><path d="m220 512.005c-121.309 0-220-98.692-220-220s98.691-220 220-220c27.716 0 54.763 5.117 80.387 15.208 10.277 4.047 15.328 15.66 11.281 25.938-4.047 10.277-15.659 15.328-25.938 11.281-20.938-8.245-43.052-12.426-65.73-12.426-99.252 0-180 80.748-180 180s80.748 180 180 180 180-80.748 180-180c0-22.679-4.181-44.794-12.426-65.73-4.047-10.277 1.003-21.89 11.281-25.938 10.277-4.049 21.89 1.003 25.938 11.28 10.091 25.624 15.207 52.67 15.207 80.387 0 121.309-98.691 220-220 220z"/><path d="m220 432.005c-77.196 0-140-62.804-140-140 0-80.129 67.488-144.223 147.793-139.785 11.029.609 19.477 10.043 18.867 21.072-.609 11.028-10.034 19.478-21.072 18.867-1.85-.102-3.729-.154-5.588-.154-55.141 0-100 44.86-100 100s44.859 100 100 100c57.114 0 103.026-48.085 99.847-105.581-.613-11.029 7.831-20.466 18.859-21.079 11.379-.636 21.294 6.4 21.294 26.66 0 77.197-62.804 140-140 140z"/><path d="m510.974 93.681c-3.493-10.479-14.822-16.141-25.298-12.649l-82.053 27.351 27.351-82.053c3.493-10.479-2.17-21.805-12.649-25.298-10.48-3.493-21.806 2.17-25.298 12.649l-38.507 115.52-148.663 148.662c-7.81 7.81-7.81 20.474 0 28.284 3.905 3.905 9.024 5.858 14.143 5.858s10.237-1.953 14.143-5.858l148.662-148.662 115.52-38.507c10.479-3.492 16.142-14.818 12.649-25.297z"/></g></svg>