<svg id="Capa_1" enable-background="new 0 0 512 512" height="512" viewBox="0 0 512 512" width="512" xmlns="http://www.w3.org/2000/svg"><g><path d="m432 512c-11.046 0-20-8.954-20-20v-40c0-11.046 8.954-20 20-20s20 8.954 20 20v40c0 11.046-8.954 20-20 20z"/><path d="m80 512c-11.046 0-20-8.954-20-20v-40c0-11.046 8.954-20 20-20s20 8.954 20 20v40c0 11.046-8.954 20-20 20z"/><path d="m256 512c-11.046 0-20-8.954-20-20v-240c0-11.046 8.954-20 20-20s20 8.954 20 20v240c0 11.046-8.954 20-20 20z"/><path d="m452 272v-252c0-11.046-8.954-20-20-20s-20 8.954-20 20v252c-33.084 0-60 26.916-60 60s26.916 60 60 60h40c33.084 0 60-26.916 60-60s-26.916-60-60-60zm0 80h-40c-11.028 0-20-8.972-20-20s8.972-20 20-20h40c11.028 0 20 8.972 20 20s-8.972 20-20 20z"/><path d="m100 272v-252c0-11.046-8.954-20-20-20s-20 8.954-20 20v252c-33.084 0-60 26.916-60 60s26.916 60 60 60h40c33.084 0 60-26.916 60-60s-26.916-60-60-60zm0 80h-40c-11.028 0-20-8.972-20-20s8.972-20 20-20h40c11.028 0 20 8.972 20 20s-8.972 20-20 20z"/><path d="m276 72v-52c0-11.046-8.954-20-20-20s-20 8.954-20 20v52c-33.084 0-60 26.916-60 60s26.916 60 60 60h40c33.084 0 60-26.916 60-60s-26.916-60-60-60zm0 80h-40c-11.028 0-20-8.972-20-20s8.972-20 20-20h40c11.028 0 20 8.972 20 20s-8.972 20-20 20z"/></g></svg>