<svg id="Capa_1" enable-background="new 0 0 511.965 511.965" height="512" viewBox="0 0 511.965 511.965" width="512" xmlns="http://www.w3.org/2000/svg"><g><path d="m255.973 207.331c-8.704 0-16.711-5.726-19.221-14.511-3.035-10.621 3.115-21.69 13.736-24.725l120-34.286c10.62-3.034 21.691 3.115 24.725 13.736 3.035 10.621-3.115 21.69-13.736 24.725-124.935 35.416-120.271 35.061-125.504 35.061z"/><path d="m406.488 2.382c-.07.02-.14.041-.21.061l-191.9 57.113c-30.51 8.776-54.395 39.776-54.395 70.627v232.544c-11.777-6.83-25.434-10.763-40-10.763-44.112 0-80 35.888-80 80s35.888 80 80 80 80-35.888 80-80v-301.78c0-13.272 11.913-28.318 25.495-32.198.07-.02.14-.041.21-.061l191.877-57.106c8.544-2.41 14.418.007 14.418 9.366v272.544c-11.777-6.83-25.434-10.763-40-10.763-44.112 0-80 35.888-80 80s35.888 80 80 80 80-35.888 80-80v-341.782c0-35.119-30.403-57.828-65.495-47.802zm-286.505 469.583c-22.056 0-40-17.944-40-40s17.944-40 40-40 40 17.944 40 40-17.944 40-40 40zm272-40c-22.056 0-40-17.944-40-40s17.944-40 40-40 40 17.944 40 40-17.944 40-40 40z"/></g></svg>