<svg id="Capa_1" enable-background="new 0 0 512 512" height="512" viewBox="0 0 512 512" width="512" xmlns="http://www.w3.org/2000/svg"><g><path d="m352 180v-31.719l-5.859 5.859c-18.718 18.718-46.987-9.575-28.281-28.281l40-40c12.612-12.612 34.14-3.638 34.14 14.141v80c0 26.48-40 26.452-40 0z"/><path d="m412 440h-352c-33.086 0-60-26.914-60-60s26.914-60 60-60c11.035 0 20-8.965 20-20v-100c0-67.754 42.91-128.398 106.777-150.938 25.171-8.671 38.147 28.978 13.32 37.734-47.909 16.895-80.097 62.384-80.097 113.204v100c0 33.086-26.914 60-60 60-11.035 0-20 8.965-20 20 0 37.398 43.231 12.077 372 20 11.035 0 20-8.965 20-20 0-10.23-6.528-18.565-20.254-20h-39.746c-26.48 0-26.452-40 0-40h39.492c36.458.894 60.508 28.607 60.508 60 0 33.086-26.914 60-60 60z"/><path d="m372 280c-77.188 0-140-62.812-140-140s62.812-140 140-140 140 62.812 140 140-62.812 140-140 140zm0-240c-55.137 0-100 44.863-100 100s44.863 100 100 100 100-44.863 100-100-44.863-100-100-100z"/><path d="m256 512h-40c-11.055 0-20-8.945-20-20s8.945-20 20-20h40c11.055 0 20 8.945 20 20s-8.945 20-20 20z"/></g></svg>