<svg id="Capa_1" enable-background="new 0 0 511.98 511.98" height="512" viewBox="0 0 511.98 511.98" width="512" xmlns="http://www.w3.org/2000/svg"><g><path d="m49.194 511.98c-10.129 0-20.328-.994-30.479-3.024-7.918-1.583-14.106-7.772-15.689-15.689-10.171-50.848 5.648-103.097 42.316-139.766l259.397-259.397c3.75-3.751 8.837-5.858 14.142-5.858s10.392 2.107 14.143 5.858l84.853 84.853c7.81 7.811 7.81 20.474-.001 28.284l-259.397 259.397c-29.346 29.347-68.682 45.342-109.285 45.342zm-8.85-40.345c33.173 2.552 65.969-9.4 89.85-33.282l245.255-245.253-56.568-56.569-245.254 245.254c-23.883 23.882-35.838 56.675-33.283 89.85z"/><path d="m446.159 150.673c-7.811-7.811-7.81-20.474.001-28.284l14.143-14.142c15.595-15.596 15.595-40.972-.001-56.568s-40.972-15.596-56.569 0l-14.141 14.141c-7.811 7.811-20.474 7.811-28.284.001-7.811-7.81-7.812-20.474-.001-28.284l14.142-14.142c31.193-31.192 81.946-31.192 113.138 0 31.191 31.193 31.191 81.945.001 113.137l-14.144 14.143c-7.808 7.806-20.471 7.811-28.285-.002z"/></g></svg>