<svg id="Capa_1" enable-background="new 0 0 512 512" height="512" viewBox="0 0 512 512" width="512" xmlns="http://www.w3.org/2000/svg"><g><circle cx="100" cy="316" r="20"/><circle cx="176" cy="316" r="20"/><circle cx="256" cy="316" r="20"/><circle cx="336" cy="316" r="20"/><circle cx="336" cy="396" r="20"/><circle cx="412" cy="316" r="20"/><circle cx="100" cy="396" r="20"/><circle cx="412" cy="396" r="20"/><path d="m412 496h-312c-55.141 0-100-44.86-100-100v-80c0-55.14 44.859-100 100-100h312c55.141 0 100 44.86 100 100v80c0 55.14-44.859 100-100 100zm-312-240c-33.084 0-60 26.916-60 60v80c0 33.084 26.916 60 60 60h312c33.084 0 60-26.916 60-60v-80c0-33.084-26.916-60-60-60z"/><path d="m256 416h-80c-11.046 0-20-8.954-20-20s8.954-20 20-20h80c11.046 0 20 8.954 20 20s-8.954 20-20 20z"/><path d="m256 176c-11.046 0-20-8.954-20-20 0-33.084 26.916-60 60-60h80c11.028 0 20-8.972 20-20v-40c0-11.046 8.954-20 20-20s20 8.954 20 20v40c0 33.084-26.916 60-60 60h-80c-11.028 0-20 8.972-20 20 0 11.046-8.954 20-20 20z"/></g></svg>