<svg id="Capa_1" enable-background="new 0 0 512 512" height="512" viewBox="0 0 512 512" width="512" xmlns="http://www.w3.org/2000/svg"><g><path d="m412 56h-20v-20c0-11.046-8.954-20-20-20s-20 8.954-20 20v20h-192v-20c0-11.046-8.954-20-20-20s-20 8.954-20 20v20h-20c-55.14 0-100 44.86-100 100v240c0 55.14 44.86 100 100 100h312c55.14 0 100-44.86 100-100v-240c0-55.14-44.86-100-100-100zm60 340c0 33.084-26.916 60-60 60h-312c-33.084 0-60-26.916-60-60v-240c0-33.084 26.916-60 60-60h312c33.084 0 60 26.916 60 60z"/><path d="m276 216h-40c-11.046 0-20-8.954-20-20s8.954-20 20-20h40c11.046 0 20 8.954 20 20s-8.954 20-20 20z"/><path d="m412 216h-40c-11.046 0-20-8.954-20-20s8.954-20 20-20h40c11.046 0 20 8.954 20 20s-8.954 20-20 20z"/><path d="m140 296h-40c-11.046 0-20-8.954-20-20s8.954-20 20-20h40c11.046 0 20 8.954 20 20s-8.954 20-20 20z"/><path d="m276 296h-40c-11.046 0-20-8.954-20-20s8.954-20 20-20h40c11.046 0 20 8.954 20 20s-8.954 20-20 20z"/><path d="m412 296h-40c-11.046 0-20-8.954-20-20s8.954-20 20-20h40c11.046 0 20 8.954 20 20s-8.954 20-20 20z"/><path d="m140 376h-40c-11.046 0-20-8.954-20-20s8.954-20 20-20h40c11.046 0 20 8.954 20 20s-8.954 20-20 20z"/><path d="m276 376h-40c-11.046 0-20-8.954-20-20s8.954-20 20-20h40c11.046 0 20 8.954 20 20s-8.954 20-20 20z"/></g></svg>