<svg id="Capa_1" enable-background="new 0 0 512 512" height="512" viewBox="0 0 512 512" width="512" xmlns="http://www.w3.org/2000/svg"><g><path d="m412 0h-312c-55.14 0-100 44.86-100 100v236c0 55.14 44.86 100 100 100h136v36h-60c-11.046 0-20 8.954-20 20s8.954 20 20 20h160c11.046 0 20-8.954 20-20s-8.954-20-20-20h-60v-36h136c55.14 0 100-44.86 100-100v-236c0-55.14-44.86-100-100-100zm60 336c0 33.084-26.916 60-60 60h-312c-33.084 0-60-26.916-60-60v-236c0-33.084 26.916-60 60-60h312c33.084 0 60 26.916 60 60z"/><path d="m296 356h-80c-11.046 0-20-8.954-20-20s8.954-20 20-20h80c11.046 0 20 8.954 20 20s-8.954 20-20 20z"/></g></svg>