<svg id="Capa_1" enable-background="new 0 0 512.004 512.004" height="512" viewBox="0 0 512.004 512.004" width="512" xmlns="http://www.w3.org/2000/svg"><g><path d="m293.718 298.424-37.716-19.829-37.716 19.829c-14.646 7.7-31.817-4.769-29.019-21.083l7.203-41.997-30.513-29.743c-11.848-11.549-5.296-31.734 11.084-34.114l42.168-6.127 18.858-38.21c7.323-14.837 28.544-14.843 35.869 0l18.858 38.21 42.168 6.127c16.373 2.379 22.939 22.56 11.084 34.114l-30.514 29.743 7.203 41.997c2.811 16.376-14.423 28.755-29.017 21.083zm-70.821-93.18 9.023 8.795c4.713 4.595 6.864 11.215 5.751 17.703l-2.13 12.419 11.154-5.864c5.826-3.063 12.788-3.063 18.614 0l11.153 5.864-2.13-12.419c-1.112-6.488 1.039-13.108 5.752-17.703l9.023-8.796-12.47-1.812c-6.514-.947-12.146-5.038-15.059-10.941l-5.577-11.3-5.577 11.3c-2.913 5.903-8.544 9.994-15.059 10.941z"/><path d="m336.01 496.73-66.684-59.647c-7.571-6.772-19.065-6.782-26.647 0l-66.685 59.647c-11.008 9.847-25.21 15.27-39.991 15.27-33.084 0-60-26.916-60-60v-352c0-55.14 44.86-100 100-100h160c55.141 0 100 44.86 100 100v352c-.001 51.644-61.538 79.126-99.993 44.73zm-40.017-89.46 66.685 59.647c12.771 11.425 33.324 2.361 33.324-14.917v-352c0-33.084-26.916-60-60-60h-160c-33.084 0-60 26.916-60 60v352c0 11.028 8.972 20 20 20 13.342 0 13.017-6.974 80.009-64.73 22.743-20.344 57.205-20.375 79.982 0z"/></g></svg>