<svg id="Capa_1" enable-background="new 0 0 512 512" height="512" viewBox="0 0 512 512" width="512" xmlns="http://www.w3.org/2000/svg"><g><path d="m376 352h-240c-55.141 0-100-44.86-100-100v-152c0-55.14 44.859-100 100-100h240c55.141 0 100 44.86 100 100v152c0 55.14-44.859 100-100 100zm-240-312c-33.084 0-60 26.916-60 60v152c0 33.084 26.916 60 60 60h240c33.084 0 60-26.916 60-60v-152c0-33.084-26.916-60-60-60z"/><path d="m196 256v-160c0-15.936 17.811-25.497 31.094-16.641l120 80c11.845 7.897 11.884 25.36 0 33.282l-120 80c-13.276 8.85-31.094-.695-31.094-16.641zm40-122.63v85.259l63.944-42.629z"/><path d="m216 392c-11.046 0-20 8.954-20 20v20h-176c-11.046 0-20 8.954-20 20s8.954 20 20 20h176v20c0 11.046 8.954 20 20 20s20-8.954 20-20v-80c0-11.046-8.954-20-20-20z"/><path d="m492 472h-196c-11.046 0-20-8.954-20-20s8.954-20 20-20h196c11.046 0 20 8.954 20 20s-8.954 20-20 20z"/></g></svg>