<svg id="Capa_1" enable-background="new 0 0 512 512" height="512" viewBox="0 0 512 512" width="512" xmlns="http://www.w3.org/2000/svg"><g><path d="m396 200c-55.141 0-100-44.86-100-100s44.859-100 100-100 100 44.86 100 100-44.859 100-100 100zm0-160c-33.084 0-60 26.916-60 60s26.916 60 60 60 60-26.916 60-60-26.916-60-60-60z"/><path d="m396 512c-55.141 0-100-44.86-100-100s44.859-100 100-100 100 44.86 100 100-44.859 100-100 100zm0-160c-33.084 0-60 26.916-60 60s26.916 60 60 60 60-26.916 60-60-26.916-60-60-60z"/><path d="m267.031 319.269-56.037-32.021c6.671-20.229 6.682-42.233 0-62.495l56.037-32.021c9.59-5.48 12.922-17.698 7.442-27.288s-17.697-12.921-27.288-7.442l-56.083 32.048c-18.34-20.861-45.208-34.05-75.102-34.05-55.141 0-100 44.86-100 100s44.859 100 100 100c29.894 0 56.762-13.189 75.102-34.05l56.083 32.048c9.549 5.456 21.784 2.19 27.288-7.442 5.48-9.59 2.148-21.807-7.442-27.287zm-151.031-3.269c-33.084 0-60-26.916-60-60s26.916-60 60-60c79.413 0 79.312 120 0 120z"/><circle cx="116" cy="256" r="20"/></g></svg>