<svg id="Capa_1" enable-background="new 0 0 512 512" height="512" viewBox="0 0 512 512" width="512" xmlns="http://www.w3.org/2000/svg"><g><path d="m336 512h-160c-55.14 0-100-44.86-100-100v-112c0-55.14 44.86-100 100-100h160c55.14 0 100 44.86 100 100v112c0 55.14-44.86 100-100 100zm-160-272c-33.084 0-60 26.916-60 60v112c0 33.084 26.916 60 60 60h160c33.084 0 60-26.916 60-60v-112c0-33.084-26.916-60-60-60z"/><path d="m296 280h-80c-11.046 0-20 8.954-20 20s8.954 20 20 20h20v92c0 11.046 8.954 20 20 20s20-8.954 20-20v-92h20c11.046 0 20-8.954 20-20s-8.954-20-20-20z"/><path d="m336 160c-11.046 0-20-8.954-20-20v-40c0-33.084-26.916-60-60-60s-60 26.916-60 60v40c0 11.046-8.954 20-20 20s-20-8.954-20-20v-40c0-55.14 44.86-100 100-100s100 44.86 100 100v40c0 11.046-8.954 20-20 20z"/></g></svg>