<svg id="Capa_1" enable-background="new 0 0 512.013 512.013" height="512" viewBox="0 0 512.013 512.013" width="512" xmlns="http://www.w3.org/2000/svg"><g><path d="m17.583 494.423c-11.334-11.334-17.576-26.401-17.576-42.423s6.242-31.089 17.577-42.423l70.41-70.41c7.811-7.811 20.474-7.811 28.284 0s7.811 20.474 0 28.284l-70.41 70.41c-7.796 7.796-7.796 20.482 0 28.278 7.82 7.82 20.458 7.821 28.278 0l70.41-70.41c7.811-7.811 20.474-7.811 28.284 0s7.811 20.474 0 28.284l-70.41 70.41c-23.452 23.452-61.392 23.455-84.847 0z"/><path d="m312.007 400c-110.28 0-200-89.72-200-200s89.72-200 200-200 200 89.72 200 200-89.72 200-200 200zm0-360c-88.224 0-160 71.776-160 160s71.776 160 160 160c88.225 0 160-71.776 160-160s-71.776-160-160-160z"/><path d="m412.007 220c-11.046 0-20-8.954-20-20 0-44.112-35.888-80-80-80-11.046 0-20-8.954-20-20s8.954-20 20-20c66.168 0 120 53.832 120 120 0 11.046-8.954 20-20 20z"/></g></svg>