<svg id="Capa_1" enable-background="new 0 0 512 512" height="512" viewBox="0 0 512 512" width="512" xmlns="http://www.w3.org/2000/svg"><g><path d="m236 59.923v-40c0-26.442 40-26.48 40 0v40c0 26.442-40 26.48-40 0z"/><path d="m118.68 98.077-20-34.641c-13.222-22.898 21.401-42.933 34.641-20l20 34.641c13.167 22.804-21.524 42.723-34.641 20z"/><path d="m358.68 78.077 20-34.641c13.221-22.896 47.882-2.932 34.641 20l-20 34.641c-13.227 22.909-47.878 2.925-34.641-20z"/><circle cx="412" cy="271.923" r="20"/><path d="m412 511.923h-312c-55.141 0-100-44.86-100-100v-140c0-55.14 44.859-100 100-100h55.998l11.98-15.975c11.281-15.043 29.233-24.025 48.021-24.025h80c18.786 0 36.738 8.981 48.021 24.024v.001l11.98 15.975h56c55.141 0 100 44.86 100 100v140c0 55.14-44.859 100-100 100zm-312-300c-33.084 0-60 26.916-60 60v140c0 33.084 26.916 60 60 60h312c33.084 0 60-26.916 60-60v-140c0-33.084-26.916-60-60-60h-65.998c-6.295 0-12.224-2.964-16-8l-15.712-20.951c-.015-.019-.028-.038-.043-.056l-2.227-2.969c-3.824-5.099-9.663-8.023-16.021-8.023h-80c-6.357 0-12.197 2.924-16.021 8.024l-17.98 23.976c-3.776 5.037-9.705 8-16 8h-65.998z"/><path d="m256 431.923c-55.141 0-100-44.86-100-100s44.859-100 100-100 100 44.86 100 100-44.859 100-100 100zm0-160c-33.084 0-60 26.916-60 60s26.916 60 60 60 60-26.916 60-60-26.916-60-60-60z"/></g></svg>