<svg id="Capa_1" enable-background="new 0 0 512 512" height="512" viewBox="0 0 512 512" width="512" xmlns="http://www.w3.org/2000/svg"><g><path d="m336 512h-160c-33.084 0-60-26.916-60-60v-312c0-33.084 26.916-60 60-60h160c33.084 0 60 26.916 60 60v312c0 33.084-26.916 60-60 60zm-160-392c-11.028 0-20 8.972-20 20v312c0 11.028 8.972 20 20 20h160c11.028 0 20-8.972 20-20v-312c0-11.028-8.972-20-20-20z"/><path d="m238.111 367.056 25.529-51.056h-47.64c-14.838 0-24.536-15.649-17.889-28.944l40-80c11.826-23.653 47.619-5.795 35.777 17.889l-25.528 51.055h47.64c14.838 0 24.536 15.649 17.889 28.944l-40 80c-11.827 23.653-47.619 5.795-35.778-17.888z"/><path d="m296 40h-80c-11.046 0-20-8.954-20-20s8.954-20 20-20h80c11.046 0 20 8.954 20 20s-8.954 20-20 20z"/></g></svg>