<svg id="Capa_1" enable-background="new 0 0 512 512" height="512" viewBox="0 0 512 512" width="512" xmlns="http://www.w3.org/2000/svg"><g><path d="m180.003 335.984h-20v-20c0-11.046-8.954-20-20-20s-20 8.954-20 20v20h-20c-11.046 0-20 8.954-20 20s8.954 20 20 20h20v20c0 11.046 8.954 20 20 20s20-8.954 20-20v-20h20c11.046 0 20-8.954 20-20s-8.955-20-20-20z"/><path d="m412.003 335.984h-20v-20c0-11.046-8.954-20-20-20s-20 8.954-20 20v20h-20c-11.046 0-20 8.954-20 20s8.954 20 20 20h20v20c0 11.046 8.954 20 20 20s20-8.954 20-20v-20h20c11.046 0 20-8.954 20-20s-8.955-20-20-20z"/><path d="m372.219 496.016c-27.701 0-53.337-8.681-77.805-26.253-23.397-16.803-53.37-18.01-72.888-2.932-25.745 19.889-51.65 29.152-81.524 29.152-38.787 0-74.856-15.499-101.564-43.642-26.692-28.127-40.272-65.01-38.239-103.856 3.943-75.289 70.595-132.501 146.593-132.501h225.21c86.221 0 153.173 77.543 137.786 165.207-9.897 56.388-56.191 102.683-112.58 112.58-8.52 1.494-16.846 2.245-24.989 2.245zm-54.472-58.743c22.774 16.355 45.825 21.786 72.547 17.099 40.119-7.042 73.056-39.979 80.097-80.097 11.26-64.153-37.877-118.291-98.389-118.291h-225.21c-56.074 0-103.916 42.435-106.647 94.593-1.455 27.779 8.244 54.141 27.308 74.23 19.08 20.104 44.845 31.177 72.55 31.177 20.842 0 38.443-6.417 57.07-20.807 34.956-27.005 84.194-24.101 120.674 2.096z"/><path d="m256.003 175.983c-11.046 0-20-8.954-20-20 0-33.084 26.916-60 60-60h80c11.028 0 20-8.972 20-20v-40c0-11.046 8.954-20 20-20s20 8.954 20 20v40c0 33.084-26.916 60-60 60h-80c-11.028 0-20 8.972-20 20 0 11.046-8.955 20-20 20z"/></g></svg>