<svg id="Capa_1" enable-background="new 0 0 512 512" height="512" viewBox="0 0 512 512" width="512" xmlns="http://www.w3.org/2000/svg"><g><path d="m456 80h-400c-11.046 0-20 8.954-20 20s8.954 20 20 20h20v292c0 55.14 44.86 100 100 100h160c55.14 0 100-44.86 100-100v-292h20c11.046 0 20-8.954 20-20s-8.954-20-20-20zm-60 332c0 33.084-26.916 60-60 60h-160c-33.084 0-60-26.916-60-60v-292h280z"/><path d="m296 40h-80c-11.046 0-20-8.954-20-20s8.954-20 20-20h80c11.046 0 20 8.954 20 20s-8.954 20-20 20z"/><path d="m256 392c-11.046 0-20-8.954-20-20v-152c0-11.046 8.954-20 20-20s20 8.954 20 20v152c0 11.046-8.954 20-20 20z"/><path d="m336 392c-11.046 0-20-8.954-20-20v-152c0-11.046 8.954-20 20-20s20 8.954 20 20v152c0 11.046-8.954 20-20 20z"/><path d="m176 392c-11.046 0-20-8.954-20-20v-152c0-11.046 8.954-20 20-20s20 8.954 20 20v152c0 11.046-8.954 20-20 20z"/></g></svg>