<svg id="Capa_1" enable-background="new 0 0 512 512" height="512" viewBox="0 0 512 512" width="512" xmlns="http://www.w3.org/2000/svg"><g><path d="m256 512c-143.551 0-256-112.449-256-256s112.449-256 256-256c143.552 0 256 112.449 256 256s-112.448 256-256 256zm0-472c-121.122 0-216 94.878-216 216s94.878 216 216 216c121.121 0 216-94.878 216-216s-94.879-216-216-216z"/><path d="m256 276c-55.14 0-100-44.86-100-100s44.86-100 100-100c55.141 0 100 44.86 100 100s-44.859 100-100 100zm0-160c-33.084 0-60 26.916-60 60s26.916 60 60 60 60-26.916 60-60-26.916-60-60-60z"/><path d="m137.242 389.433c-10.235-4.154-15.165-15.818-11.011-26.053 10.356-25.517 27.87-47.265 50.65-62.893 23.349-16.02 50.708-24.487 79.119-24.487 28.41 0 55.77 8.467 79.119 24.487 22.779 15.628 40.294 37.376 50.65 62.893 4.153 10.235-.776 21.899-11.011 26.053-10.234 4.156-21.899-.776-26.054-11.01-15.389-37.921-51.777-62.423-92.704-62.423s-77.316 24.502-92.705 62.422c-4.165 10.265-15.844 15.152-26.053 11.011z"/></g></svg>