<svg id="Capa_1" enable-background="new 0 0 512 512" height="512" viewBox="0 0 512 512" width="512" xmlns="http://www.w3.org/2000/svg"><g><path d="m506.194 241.908c-.016-.016-.029-.034-.045-.05l-60-60c-7.811-7.811-20.475-7.811-28.285 0s-7.81 20.474 0 28.284l25.857 25.858h-263.715c-11.046 0-20 8.954-20 20s8.954 20 20 20h263.716l-25.858 25.858c-7.81 7.811-7.81 20.474 0 28.284 3.905 3.905 9.024 5.858 14.143 5.858s10.237-1.953 14.143-5.858l60-60c.016-.016.029-.034.045-.05 7.757-7.813 7.708-20.424-.001-28.184z"/><path d="m252.006 512h-152c-55.141 0-100-44.86-100-100v-312c0-55.14 44.859-100 100-100h152c55.141 0 100 44.86 100 100v76c0 11.046-8.954 20-20 20s-20-8.954-20-20v-76c0-33.084-26.916-60-60-60h-152c-33.084 0-60 26.916-60 60v312c0 33.084 26.916 60 60 60h152c33.084 0 60-26.916 60-60v-76c0-11.046 8.954-20 20-20s20 8.954 20 20v76c0 55.14-44.859 100-100 100z"/></g></svg>