<svg id="Capa_1" enable-background="new 0 0 512 512" height="512" viewBox="0 0 512 512" width="512" xmlns="http://www.w3.org/2000/svg"><g><path d="m5.857 140.436c-7.81-7.811-7.81-20.474 0-28.284l56.568-56.568c7.811-7.811 20.475-7.811 28.285 0s7.81 20.474 0 28.284l-56.568 56.568c-7.81 7.811-20.474 7.811-28.285 0z"/><path d="m477.857 140.436-56.568-56.568c-7.81-7.811-7.81-20.474 0-28.284 7.811-7.811 20.475-7.811 28.285 0l56.568 56.568c7.81 7.811 7.81 20.474 0 28.284-7.81 7.811-20.474 7.811-28.285 0z"/><path d="m281.857 346.142-40-40c-3.75-3.75-5.857-8.838-5.857-14.142v-80c0-11.046 8.954-20 20-20s20 8.954 20 20v71.716l34.143 34.142c7.81 7.811 7.81 20.474 0 28.284-7.811 7.81-20.475 7.811-28.286 0z"/><path d="m276 72.906v-32.906h20c11.046 0 20-8.954 20-20s-8.954-20-20-20h-80c-11.046 0-20 8.954-20 20s8.954 20 20 20h20v32.906c-111.84 10.014-200 103.918-200 219.094 0 121.587 98.395 220 220 220 121.59 0 220-98.398 220-220 0-115.046-88.041-209.07-200-219.094zm-20 399.094c-99.252 0-180-80.748-180-180s80.748-180 180-180 180 80.748 180 180-80.748 180-180 180z"/></g></svg>