<svg id="Capa_1" enable-background="new 0 0 512 512" height="512" viewBox="0 0 512 512" width="512" xmlns="http://www.w3.org/2000/svg"><g><path d="m346.142 241.858-60-60c-7.811-7.811-20.474-7.811-28.284 0s-7.811 20.474 0 28.284l25.858 25.858h-263.716c-11.046 0-20 8.954-20 20s8.954 20 20 20h263.716l-25.858 25.858c-7.811 7.811-7.811 20.474 0 28.284 3.905 3.905 9.023 5.858 14.142 5.858s10.237-1.953 14.142-5.858l60-60c7.811-7.81 7.811-20.473 0-28.284z"/><path d="m412 512h-160c-55.14 0-100-44.86-100-100v-76c0-11.046 8.954-20 20-20s20 8.954 20 20v76c0 33.084 26.916 60 60 60h160c33.084 0 60-26.916 60-60v-312c0-33.084-26.916-60-60-60h-160c-33.084 0-60 26.916-60 60v76c0 11.046-8.954 20-20 20s-20-8.954-20-20v-76c0-55.14 44.86-100 100-100h160c55.14 0 100 44.86 100 100v312c0 55.14-44.86 100-100 100z"/></g></svg>