<svg id="Capa_1" enable-background="new 0 0 512 512" height="512" viewBox="0 0 512 512" width="512" xmlns="http://www.w3.org/2000/svg"><g><path d="m412 436h-312c-55.14 0-100-44.86-100-100v-160c0-55.14 44.86-100 100-100h312c55.14 0 100 44.86 100 100v160c0 55.14-44.86 100-100 100zm-312-320c-33.084 0-60 26.916-60 60v160c0 33.084 26.916 60 60 60h312c33.084 0 60-26.916 60-60v-160c0-33.084-26.916-60-60-60z"/><path d="m412 196h-312c-11.046 0-20-8.954-20-20s8.954-20 20-20h312c11.046 0 20 8.954 20 20s-8.954 20-20 20z"/><path d="m176 356h-76c-11.046 0-20-8.954-20-20s8.954-20 20-20h76c11.046 0 20 8.954 20 20s-8.954 20-20 20z"/></g></svg>