<svg id="Capa_1" enable-background="new 0 0 512 512" height="512" viewBox="0 0 512 512" width="512" xmlns="http://www.w3.org/2000/svg"><g><path d="m452 236h-392c-33.084 0-60-26.916-60-60v-80c0-33.084 26.916-60 60-60h392c33.084 0 60 26.916 60 60v80c0 33.084-26.916 60-60 60zm-392-160c-11.028 0-20 8.972-20 20v80c0 11.028 8.972 20 20 20h392c11.028 0 20-8.972 20-20v-80c0-11.028-8.972-20-20-20z"/><circle cx="100" cy="136" r="20"/><circle cx="180" cy="136" r="20"/><path d="m416 156h-80c-11.046 0-20-8.954-20-20s8.954-20 20-20h80c11.046 0 20 8.954 20 20s-8.954 20-20 20z"/><path d="m452 476h-392c-33.084 0-60-26.916-60-60v-80c0-33.084 26.916-60 60-60h392c33.084 0 60 26.916 60 60v80c0 33.084-26.916 60-60 60zm-392-160c-11.028 0-20 8.972-20 20v80c0 11.028 8.972 20 20 20h392c11.028 0 20-8.972 20-20v-80c0-11.028-8.972-20-20-20z"/><circle cx="100" cy="376" r="20"/><circle cx="180" cy="376" r="20"/><path d="m416 396h-80c-11.046 0-20-8.954-20-20s8.954-20 20-20h80c11.046 0 20 8.954 20 20s-8.954 20-20 20z"/></g></svg>