<svg id="Capa_1" enable-background="new 0 0 512 512" height="512" viewBox="0 0 512 512" width="512" xmlns="http://www.w3.org/2000/svg"><g><path d="m336 80c-11.046 0-20-8.954-20-20 0-11.028-8.972-20-20-20h-80c-11.028 0-20 8.972-20 20 0 11.046-8.954 20-20 20s-20-8.954-20-20c0-33.084 26.916-60 60-60h80c33.084 0 60 26.916 60 60 0 11.046-8.954 20-20 20z"/><path d="m412 512h-312c-55.141 0-100-44.86-100-100v-192c0-55.14 44.859-100 100-100h312c55.141 0 100 44.86 100 100v192c0 55.14-44.859 100-100 100zm-312-352c-33.084 0-60 26.916-60 60v192c0 33.084 26.916 60 60 60h312c33.084 0 60-26.916 60-60v-192c0-33.084-26.916-60-60-60z"/><path d="m412 196c-11.046 0-20 8.954-20 20 0 33.084-26.916 60-60 60h-152c-33.084 0-60-26.916-60-60 0-11.046-8.954-20-20-20s-20 8.954-20 20c0 55.14 44.859 100 100 100h56v20c0 11.046 8.954 20 20 20s20-8.954 20-20v-20h56c55.141 0 100-44.86 100-100 0-11.046-8.954-20-20-20z"/></g></svg>