<svg id="Capa_1" enable-background="new 0 0 512.032 512.032" height="512" viewBox="0 0 512.032 512.032" width="512" xmlns="http://www.w3.org/2000/svg"><g><path d="m390.354 476.021h-268.476c-35.786 0-69.249-19.478-87.33-50.833-22.602-39.193-34.548-83.859-34.548-129.167 0-111.876 69.943-212.767 176.905-247.55 34.975-11.374 71.759-14.986 109.33-10.736 114.075 12.902 205.757 103.816 222.833 218.866 9.136 61.546-2.947 121.783-34.944 174.199-17.027 27.894-49.126 45.221-83.77 45.221zm-134.406-400.004c-123.064 0-215.948 100.828-215.948 220.004 0 38.304 10.097 76.059 29.199 109.185 10.96 19.007 31.146 30.815 52.679 30.815h268.477c20.799 0 39.814-9.987 49.629-26.063 27.055-44.32 37.262-95.32 29.519-147.485-14.555-98.063-91.766-174.134-187.763-184.992-8.658-.979-17.269-1.464-25.792-1.464z"/><path d="m412 316.021c-11.046 0-20-8.954-20-20 0-78.504-59.738-140-136-140s-136 61.496-136 140c0 11.046-8.954 20-20 20s-20-8.954-20-20c0-99.956 77.051-180 176-180 98.777 0 176 79.859 176 180 0 11.046-8.954 20-20 20z"/><path d="m238.68 326.021 56.033-97.053c13.221-22.897 47.882-2.932 34.641 20l-56.033 97.053c-13.232 22.92-47.875 2.919-34.641-20z"/></g></svg>