<svg id="Capa_1" enable-background="new 0 0 512 512" height="512" viewBox="0 0 512 512" width="512" xmlns="http://www.w3.org/2000/svg"><g><path d="m196 512c-77.196 0-140-62.804-140-140v-112c0-55.14 44.86-100 100-100h80c55.14 0 100 44.86 100 100v112c0 77.196-62.804 140-140 140zm-40-312c-33.084 0-60 26.916-60 60v112c0 55.14 44.86 100 100 100s100-44.86 100-100v-112c0-33.084-26.916-60-60-60z"/><path d="m196 320c-11.046 0-20-8.954-20-20v-40c0-11.046 8.954-20 20-20s20 8.954 20 20v40c0 11.046-8.954 20-20 20z"/><path d="m396 200c-33.084 0-60-26.916-60-60v-40c0-33.084-26.916-60-60-60s-60 26.916-60 60c0 11.046-8.954 20-20 20s-20-8.954-20-20c0-55.14 44.86-100 100-100s100 44.86 100 100v40c0 11.028 8.972 20 20 20s20-8.972 20-20v-120c0-11.046 8.954-20 20-20s20 8.954 20 20v120c0 33.084-26.916 60-60 60z"/></g></svg>