<svg id="Capa_1" enable-background="new 0 0 512 512" height="512" viewBox="0 0 512 512" width="512" xmlns="http://www.w3.org/2000/svg"><g><circle cx="100" cy="396" r="20"/><circle cx="180" cy="396" r="20"/><path d="m412 496h-312c-55.14 0-100-44.86-100-100s44.86-100 100-100h312c55.14 0 100 44.86 100 100s-44.86 100-100 100zm-312-160c-33.084 0-60 26.916-60 60s26.916 60 60 60h312c33.084 0 60-26.916 60-60s-26.916-60-60-60z"/><path d="m383.21 108.79c-34.042-34.042-79.219-52.79-127.21-52.79s-93.168 18.748-127.21 52.79c-7.811 7.811-20.474 7.811-28.284 0s-7.811-20.474 0-28.284c41.596-41.598 96.819-64.506 155.494-64.506s113.898 22.908 155.495 64.505c7.811 7.811 7.811 20.474 0 28.284-7.811 7.811-20.474 7.811-28.285.001z"/><path d="m326.672 165.328c-18.912-18.912-44.01-29.328-70.672-29.328s-51.76 10.416-70.672 29.328c-7.811 7.811-20.474 7.811-28.284 0s-7.811-20.474 0-28.284c26.467-26.468 61.61-41.044 98.956-41.044s72.489 14.576 98.957 41.043c7.811 7.811 7.811 20.474 0 28.284-7.811 7.811-20.474 7.811-28.285.001z"/><path d="m270.142 221.857c-3.777-3.777-8.8-5.857-14.142-5.857s-10.365 2.08-14.142 5.857c-7.811 7.811-20.474 7.812-28.284.001-7.811-7.81-7.811-20.474-.001-28.284 11.332-11.333 26.4-17.574 42.427-17.574s31.095 6.241 42.427 17.574c7.81 7.811 7.81 20.474-.001 28.284-7.81 7.81-20.473 7.811-28.284-.001z"/><path d="m416 416h-80c-11.046 0-20-8.954-20-20s8.954-20 20-20h80c11.046 0 20 8.954 20 20s-8.954 20-20 20z"/></g></svg>