<svg id="Capa_1" enable-background="new 0 0 512 512" height="512" viewBox="0 0 512 512" width="512" xmlns="http://www.w3.org/2000/svg"><g><circle cx="100" cy="296" r="20"/><circle cx="176" cy="296" r="20"/><circle cx="252" cy="296" r="20"/><path d="m60 512c-25.282 0-46.961-15.717-55.781-37.893-2.644-3.391-4.219-7.656-4.219-12.289v-201.818c0-55.14 44.86-100 100-100h152c55.141 0 100 44.86 100 100v72c0 55.14-44.859 100-100 100h-102l-41.979 55.976c-11.282 15.043-29.233 24.024-48.021 24.024zm-20-60c0 11.028 8.972 20 20 20 6.357 0 12.197-2.924 16.021-8.023l47.979-63.977c3.777-5.037 9.705-8 16-8h112c33.084 0 60-26.916 60-60v-72c0-33.084-26.916-60-60-60h-152c-33.084 0-60 26.916-60 60z"/><path d="m403.979 335.976-7.979-10.64c-15.863-21.153 16.113-45.183 32.002-23.998l7.979 10.639c11.47 15.297 36.019 7.251 36.019-11.977v-200c0-33.084-26.916-60-60-60h-160c-33.084 0-60 26.916-60 60 0 11.046-8.954 20-20 20s-20-8.954-20-20c0-55.14 44.86-100 100-100h160c55.141 0 100 44.86 100 100v209.818c0 4.633-1.575 8.898-4.22 12.289-17.337 43.595-75.724 51.306-103.801 13.869z"/></g></svg>