<svg id="Capa_1" enable-background="new 0 0 512 512" height="512" viewBox="0 0 512 512" width="512" xmlns="http://www.w3.org/2000/svg"><g><path d="m472 292.05v-72.05c0-121.955-94.825-220-216-220-120.964 0-216 97.854-216 220v72.05c-24.273 18.263-40 47.304-40 79.95v40c0 55.14 44.859 100 100 100 33.084 0 60-26.916 60-60v-120c0-33.084-26.916-60-60-60-6.847 0-13.536.693-20 2.011v-54.011c0-100.935 77.309-180 176-180s176 79.065 176 180v54.011c-6.464-1.317-13.153-2.011-20-2.011-33.084 0-60 26.916-60 60v120c0 33.084 26.916 60 60 60 55.141 0 100-44.86 100-100v-40c0-32.646-15.727-61.687-40-79.95zm-352 39.95v120c0 11.028-8.972 20-20 20-33.084 0-60-26.916-60-60v-40c0-33.084 26.916-60 60-60 11.028 0 20 8.972 20 20zm352 80c0 33.084-26.916 60-60 60-11.028 0-20-8.972-20-20v-120c0-11.028 8.972-20 20-20 33.084 0 60 26.916 60 60z"/><path d="m372 240c-11.046 0-20-8.954-20-20 0-56.075-42.168-100-96-100s-96 43.925-96 100c0 11.046-8.954 20-20 20s-20-8.954-20-20c0-78.505 59.738-140 136-140s136 61.495 136 140c0 11.046-8.954 20-20 20z"/></g></svg>