<svg id="Capa_1" enable-background="new 0 0 512 512" height="512" viewBox="0 0 512 512" width="512" xmlns="http://www.w3.org/2000/svg"><g><circle cx="256" cy="140" r="20"/><path d="m336 316h-160c-11.046 0-20-8.954-20-20s8.954-20 20-20h160c11.046 0 20 8.954 20 20s-8.954 20-20 20z"/><path d="m336 396h-160c-11.046 0-20-8.954-20-20s8.954-20 20-20h160c11.046 0 20 8.954 20 20s-8.954 20-20 20z"/><path d="m376 512h-240c-33.084 0-60-26.916-60-60v-232c0-23.107 8.094-45.661 22.791-63.504l110.88-134.625c24.042-29.192 68.664-29.132 92.658 0l110.88 134.623c14.697 17.845 22.791 40.398 22.791 63.506v232c0 33.084-26.916 60-60 60zm-135.453-464.699-110.881 134.625c-8.813 10.699-13.666 24.221-13.666 38.074v232c0 11.028 8.972 20 20 20h240c11.028 0 20-8.972 20-20v-232c0-13.853-4.854-27.375-13.667-38.075l-110.88-134.624c-8.025-9.744-22.895-9.726-30.906 0zm-15.438-12.715h.01z"/></g></svg>