<svg id="Capa_1" enable-background="new 0 0 512.036 512.036" height="512" viewBox="0 0 512.036 512.036" width="512" xmlns="http://www.w3.org/2000/svg"><g><path d="m41.721 512.005c-13.271 0-21.869-.966-23.083-1.112-9.148-1.096-16.364-8.3-17.475-17.446-.548-4.516-12.637-111.377 56.448-180.462 7.811-7.811 20.474-7.811 28.284 0s7.811 20.474 0 28.284c-41.076 41.078-46.066 101.634-45.845 130.657.323.001.651.002.982.002 29.448 0 89.367-5.456 129.717-45.806 7.811-7.811 20.474-7.811 28.284 0s7.811 20.474 0 28.284c-50.43 50.43-121.177 57.599-157.312 57.599z"/><path d="m326.312 245.705c-16.027 0-31.094-6.241-42.427-17.574-11.332-11.332-17.573-26.399-17.573-42.426 0-16.026 6.241-31.094 17.574-42.426 11.332-11.333 26.399-17.574 42.426-17.574 16.026 0 31.094 6.241 42.426 17.574s17.574 26.4 17.574 42.426c0 16.027-6.241 31.094-17.574 42.427-11.332 11.332-26.399 17.573-42.426 17.573zm0-80c-5.342 0-10.365 2.08-14.142 5.858-3.778 3.778-5.858 8.8-5.858 14.142s2.08 10.365 5.858 14.142c3.777 3.778 8.8 5.858 14.142 5.858s10.364-2.081 14.142-5.858c3.778-3.777 5.858-8.799 5.858-14.142 0-5.342-2.081-10.364-5.858-14.142-3.777-3.777-8.8-5.858-14.142-5.858z"/><path d="m506.16 34.142c7.811-7.811 7.811-20.474 0-28.284s-20.474-7.811-28.284 0l-14.499 14.499c-72.528-29.781-156.236-13.469-212.365 42.66l-67.543 67.542c-38.806-25.667-91.706-21.431-125.835 12.697l-51.735 51.569c-7.823 7.798-7.844 20.461-.046 28.284 3.907 3.92 9.036 5.881 14.165 5.881 5.107 0 10.216-1.945 14.119-5.835l51.759-51.591c18.435-18.436 45.98-22.332 68.278-11.709l-39.994 39.994c-23.394 23.394-23.394 61.459 0 84.853l113.137 113.137c11.697 11.696 27.062 17.544 42.426 17.544s30.729-5.848 42.427-17.545l40.019-40.02c3.819 7.978 5.839 16.771 5.839 25.877 0 16.027-6.241 31.094-17.602 42.455l-51.568 51.771c-7.795 7.826-7.77 20.489.056 28.284 3.903 3.888 9.009 5.83 14.114 5.83 5.132 0 10.263-1.963 14.17-5.886l51.541-51.744c18.888-18.888 29.29-44 29.29-70.711 0-19.915-5.785-38.939-16.556-55.16l67.529-67.529c56.129-56.129 72.44-139.838 42.659-212.365zm-85.442 198.58-80.258 80.258c-.002.002-.003.003-.005.005-.002.001-.003.003-.005.005l-56.564 56.564c-7.797 7.797-20.486 7.798-28.285 0l-113.136-113.137c-7.798-7.798-7.798-20.486 0-28.285l136.831-136.831c45.814-45.815 114.726-58.284 173.424-32.003 26.281 58.699 13.811 127.611-32.002 173.424z"/></g></svg>