<svg id="Capa_1" enable-background="new 0 0 512.011 512.011" height="512" viewBox="0 0 512.011 512.011" width="512" xmlns="http://www.w3.org/2000/svg"><g><path d="m213.579 458.425c-.048-.047-.095-.095-.142-.143l-195.936-199.935c-20.714-20.789-22.84-52.506-7.441-75.602l80-120c11.165-16.748 29.836-26.746 49.946-26.746h232c20.11 0 38.781 9.999 49.946 26.746l80 120c15.401 23.1 13.269 54.817-7.441 75.602l-195.937 199.935c-.047.048-.094.096-.142.143-23.446 23.448-61.403 23.452-84.853 0zm28.349-28.221c7.796 7.73 20.356 7.735 28.156 0l195.922-199.919c.047-.048.095-.096.142-.144 7.011-7.01 7.572-17.634 2.523-25.207l-80-120c-3.729-5.595-9.96-8.935-16.665-8.935h-232c-6.705 0-12.936 3.34-16.665 8.935l-80 120c-5.049 7.575-4.487 18.198 2.523 25.208.047.047.095.096.142.144z"/><path d="m399.442 195.999h-95.152l45.858-45.858c7.811-7.811 7.811-20.474 0-28.284s-20.475-7.811-28.285 0l-65.857 65.858-65.857-65.858c-7.811-7.811-20.475-7.811-28.285 0s-7.811 20.474 0 28.284l45.858 45.858h-95.152c-11.046 0-20 8.954-20 20s8.954 20 20 20h286.873c11.046 0 20-8.954 20-20s-8.955-20-20.001-20z"/></g></svg>