<svg id="Capa_1" enable-background="new 0 0 512 512" height="512" viewBox="0 0 512 512" width="512" xmlns="http://www.w3.org/2000/svg"><g><path d="m330.143 225.858s-60.029-60.025-60.042-60.038c-7.796-7.746-20.421-7.73-28.201 0-.013.013-60.042 60.038-60.042 60.038-7.81 7.811-7.81 20.474 0 28.284 7.811 7.811 20.475 7.811 28.285 0l25.857-25.858v183.716c0 11.046 8.954 20 20 20s20-8.954 20-20v-183.716l25.857 25.858c3.906 3.905 9.025 5.858 14.143 5.858s10.237-1.953 14.143-5.858c7.809-7.81 7.809-20.473 0-28.284z"/><path d="m396 360h-60c-11.046 0-20-8.954-20-20s8.954-20 20-20h60c43.327 0 76-34.393 76-80 0-39.665-24.168-71.17-60.14-78.397-9.521-1.913-16.292-10.389-16.055-20.097.024-.984.107-1.845.187-2.491-.528-32.632-27.237-59.015-59.992-59.015-6.507 0-13.136 1.253-20.266 3.831-8.014 2.898-16.993.396-22.353-6.234-19.317-23.894-47.522-37.597-77.381-37.597-27.012 0-52.346 10.646-71.334 29.978-18.842 19.183-28.951 44.631-28.467 71.658.173 9.661-6.585 18.063-16.058 19.966-35.972 7.228-60.141 38.733-60.141 78.398 0 45.607 32.673 80 76 80h60c11.046 0 20 8.954 20 20s-8.954 20-20 20h-60c-65.047 0-116-52.71-116-120 0-28.368 8.683-54.625 25.108-75.935 13.522-17.542 31.185-30.297 51.678-37.454 2.949-31.911 16.618-61.526 39.344-84.663 26.57-27.051 62.038-41.948 99.87-41.948 37.537 0 73.11 15.27 99.485 42.313 6.912-1.538 13.774-2.313 20.515-2.313 50.587 0 92.521 37.759 99.102 86.572 20.544 7.149 38.244 19.919 51.791 37.494 16.425 21.309 25.107 47.566 25.107 75.934 0 67.29-50.953 120-116 120z"/><path d="m376 512h-240c-11.046 0-20-8.954-20-20v-40c0-11.046 8.954-20 20-20s20 8.954 20 20v20h200v-20c0-11.046 8.954-20 20-20s20 8.954 20 20v40c0 11.046-8.954 20-20 20z"/></g></svg>