<svg id="Capa_1" enable-background="new 0 0 512.058 512.058" height="512" viewBox="0 0 512.058 512.058" width="512" xmlns="http://www.w3.org/2000/svg"><g><path d="m282.295 249.764c-5.119 0-10.237-1.953-14.142-5.858-7.811-7.811-7.811-20.474 0-28.284l84.853-84.853c7.811-7.811 20.474-7.811 28.284 0s7.811 20.474 0 28.284l-84.853 84.853c-3.905 3.905-9.023 5.858-14.142 5.858z"/><path d="m436.176 2.176-311.127 84.853h.001c-44.31 12.081-59.153 67.758-26.603 100.309l98.995 98.995-42.427 42.427c-7.811 7.811-7.811 20.474 0 28.284 7.81 7.81 20.473 7.811 28.284 0l42.427-42.427 98.995 98.995c32.444 32.445 88.207 17.776 100.309-26.602l84.853-311.127c12.202-44.739-28.936-85.917-73.707-73.707zm35.117 63.183-84.853 311.128c-3.976 14.58-22.51 19.765-33.434 8.841l-226.274-226.275c-10.879-10.88-5.849-29.428 8.841-33.434h.001l311.126-84.853c15.027-4.099 28.646 9.73 24.593 24.593z"/><path d="m33.594 478.464c-7.811-7.811-7.811-20.474 0-28.284l64.853-64.853c7.811-7.811 20.474-7.811 28.284 0s7.811 20.474 0 28.284l-64.853 64.853c-7.81 7.811-20.473 7.811-28.284 0z"/><path d="m118.447 506.2c-7.811-7.811-7.811-20.474 0-28.284l64.853-64.853c7.811-7.811 20.474-7.811 28.284 0s7.811 20.474 0 28.284l-64.852 64.853c-7.811 7.811-20.474 7.811-28.285 0z"/><path d="m5.859 393.611c-7.811-7.811-7.811-20.474 0-28.284l64.853-64.853c7.811-7.811 20.474-7.811 28.284 0 7.811 7.811 7.811 20.474 0 28.284l-64.853 64.853c-7.81 7.81-20.473 7.812-28.284 0z"/></g></svg>