<svg id="Capa_1" enable-background="new 0 0 512 512" height="512" viewBox="0 0 512 512" width="512" xmlns="http://www.w3.org/2000/svg"><g><path d="m256 240c-33.084 0-60-26.916-60-60s26.916-60 60-60 60 26.916 60 60-26.916 60-60 60zm0-80c-11.028 0-20 8.972-20 20s8.972 20 20 20 20-8.972 20-20-8.972-20-20-20z"/><path d="m256 512c-23.01 0-44.255-13.409-54.168-34.174-91.819-197.715-125.832-227.605-125.832-297.826 0-99.252 80.748-180 180-180s180 80.748 180 180c0 26.87-5.809 52.743-17.265 76.899-.04.084-.08.167-.121.251l-108.446 220.676c-9.913 20.765-31.158 34.174-54.168 34.174zm-18.212-51.702c.041.083.081.167.121.251 3.299 6.956 10.4 11.451 18.091 11.451s14.792-4.495 18.091-11.451c.04-.084.08-.168.121-.251l108.44-220.664c8.858-18.722 13.348-38.784 13.348-59.634 0-77.196-62.804-140-140-140s-140 62.804-140 140c0 55.577 22.808 69.439 121.788 280.298z"/></g></svg>