<svg id="Capa_1" enable-background="new 0 0 512 512" height="512" viewBox="0 0 512 512" width="512" xmlns="http://www.w3.org/2000/svg"><g><path d="m256 240c-55.14 0-100-44.86-100-100v-40c0-11.046 8.954-20 20-20s20 8.954 20 20v40c0 33.084 26.916 60 60 60s60-26.916 60-60v-40c0-11.046 8.954-20 20-20s20 8.954 20 20v40c0 55.14-44.859 100-100 100z"/><path d="m412 512h-312c-55.14 0-100-44.86-100-100 0-7.809.906-15.59 2.693-23.127.008-.035.016-.069.025-.104l79.446-327.311c8.599-36.187 40.6-61.458 77.836-61.458h192c37.232 0 69.229 25.262 77.832 61.442l79.45 327.327c.009.035.018.07.025.105 1.787 7.539 2.693 15.319 2.693 23.126 0 55.14-44.859 100-100 100zm-370.397-113.853c-1.064 4.503-1.603 9.164-1.603 13.853 0 33.084 26.916 60 60 60h312c33.084 0 60-26.916 60-60 0-4.687-.539-9.347-1.603-13.852l-79.447-327.316c-.009-.035-.017-.07-.025-.105-4.287-18.092-20.294-30.727-38.925-30.727h-192c-18.631 0-34.637 12.635-38.925 30.727-.008.035-.017.07-.025.105z"/></g></svg>