<svg id="Capa_1" enable-background="new 0 0 512.023 512.023" height="512" viewBox="0 0 512.023 512.023" width="512" xmlns="http://www.w3.org/2000/svg"><g><path d="m255.586 482.711-226.274-226.274c-39.079-39.08-39.085-102.336 0-141.421l28.284-28.284c23.395-23.394 61.459-23.394 84.854 0l56.568 56.568c23.394 23.394 23.394 61.459 0 84.853-7.799 7.798-7.799 20.486 0 28.284l56.568 56.569c7.799 7.798 20.486 7.797 28.285 0h-.001c23.395-23.394 61.459-23.394 84.854 0l56.568 56.568c23.447 23.448 23.451 61.402-.001 84.853l-28.283 28.284c-39.082 39.079-102.336 39.085-141.422 0zm-155.564-373.544c-5.121 0-10.243 1.95-14.142 5.849l-28.284 28.284c-23.448 23.447-23.452 61.401-.001 84.853l226.275 226.274c23.446 23.447 61.4 23.451 84.853 0l28.283-28.285c7.816-7.814 7.819-20.466 0-28.284l-56.568-56.568c-7.797-7.798-20.486-7.798-28.283 0-.001 0-.001 0-.001 0-23.392 23.393-61.459 23.394-84.853 0l-56.569-56.569c-23.394-23.394-23.394-61.458.001-84.853 7.815-7.816 7.817-20.467 0-28.285l-56.569-56.568c-3.898-3.899-9.02-5.848-14.142-5.848zm197.991 217.98h.01z"/><path d="m492.022 240c-11.046 0-20-8.954-20-20 0-99.252-80.748-180-180-180-11.046 0-20-8.954-20-20s8.954-20 20-20c121.309 0 220 98.691 220 220 .001 11.046-8.954 20-20 20z"/><path d="m332.022 240c-11.046 0-20-8.954-20-20 0-11.028-8.972-20-20-20-11.046 0-20-8.954-20-20s8.954-20 20-20c33.084 0 60 26.916 60 60 0 11.046-8.954 20-20 20z"/><path d="m412.022 240c-11.046 0-20-8.954-20-20 0-55.14-44.859-100-100-100-11.046 0-20-8.954-20-20s8.954-20 20-20c77.196 0 140 62.804 140 140 0 11.046-8.954 20-20 20z"/></g></svg>