<svg id="Capa_1" enable-background="new 0 0 512.008 512.008" height="512" viewBox="0 0 512.008 512.008" width="512" xmlns="http://www.w3.org/2000/svg"><g id="Layer_1_"><path d="m209.655 300.607-177.403-91.398c-.05-.026-.1-.052-.149-.078-42.742-22.478-42.768-83.765.001-106.255.05-.026.099-.052.148-.078l177.406-91.398c28.749-15.084 63.547-15.291 92.691 0l177.406 91.399c.05.026.099.052.148.078 42.743 22.476 42.769 83.763.001 106.255-.05.026-.1.052-.149.078l-177.403 91.397c-28.693 15.054-63.49 15.323-92.697 0zm-158.99-126.908 177.377 91.384c.05.026.1.052.149.078 17.373 9.138 38.243 9.142 55.625 0 .05-.026.1-.052.149-.078l177.377-91.384c14.197-7.522 14.203-27.86.005-35.387l-177.381-91.387c-.05-.026-.099-.052-.148-.078-17.38-9.139-38.241-9.142-55.627 0-.05.026-.099.052-.148.078l-177.383 91.387c-14.195 7.525-14.195 27.863.005 35.387z"/><path d="m209.572 500.563c-.048-.025-.097-.051-.146-.077l-198.877-106.69c-9.733-5.222-13.391-17.345-8.169-27.079s17.343-13.391 27.079-8.169l198.797 106.647c17.342 9.092 38.147 9.096 55.496 0l198.797-106.647c9.735-5.222 21.857-1.564 27.079 8.169s1.564 21.857-8.169 27.079l-198.878 106.69c-.049.026-.098.052-.146.077-28.736 15.112-63.612 15.383-92.863 0z"/><path d="m209.572 400.563c-.048-.025-.097-.051-.146-.077l-198.877-106.69c-9.733-5.222-13.391-17.345-8.169-27.079s17.343-13.391 27.079-8.169l198.797 106.647c17.342 9.092 38.147 9.096 55.496 0l198.797-106.647c9.735-5.222 21.857-1.564 27.079 8.169s1.564 21.857-8.169 27.079l-198.878 106.69c-.049.026-.098.052-.146.077-28.736 15.112-63.612 15.383-92.863 0z"/></g></svg>