<?xml version="1.0" encoding="utf-8"?>
<!-- Generator: Adobe Illustrator 25.4.1, SVG Export Plug-In . SVG Version: 6.00 Build 0)  -->
<svg version="1.1" id="Calque_1" xmlns="http://www.w3.org/2000/svg" xmlns:xlink="http://www.w3.org/1999/xlink" x="0px" y="0px"
	 viewBox="0 0 512 512" style="enable-background:new 0 0 512 512;" xml:space="preserve">
<style type="text/css">
	.st0{fill:#FFFFFF;}
</style>
<g id="Line">
	<path class="st0" d="M405.3,66.1V42.7c0-11.8-9.6-21.3-21.3-21.3c-11.8,0-21.3,9.6-21.3,21.3V64h-85.3V42.7
		c0-11.8-9.6-21.3-21.3-21.3c-11.8,0-21.3,9.6-21.3,21.3V64h-85.3V42.7c0-11.8-9.6-21.3-21.3-21.3s-21.3,9.6-21.3,21.3v23.5
		C57,76.3,21.3,120,21.3,170.7V384c0,58.9,47.8,106.7,106.7,106.7h256c58.9,0,106.7-47.8,106.7-106.7V170.7
		C490.7,120,455,76.3,405.3,66.1z M106.7,110.5V128c0,11.8,9.6,21.3,21.3,21.3s21.3-9.6,21.3-21.3v-21.3h85.3V128
		c0,11.8,9.6,21.3,21.3,21.3c11.8,0,21.3-9.6,21.3-21.3v-21.3h85.3V128c0,11.8,9.6,21.3,21.3,21.3c11.8,0,21.3-9.6,21.3-21.3v-17.5
		c25.5,9,42.6,33.1,42.7,60.2V192H64v-21.3C64.1,143.6,81.2,119.5,106.7,110.5L106.7,110.5z M384,448H128c-35.3,0-64-28.7-64-64
		V234.7h384V384C448,419.3,419.3,448,384,448z"/>
</g>
</svg>
