<?xml version="1.0" encoding="utf-8"?>
<!-- Generator: Adobe Illustrator 25.4.1, SVG Export Plug-In . SVG Version: 6.00 Build 0)  -->
<svg version="1.1" id="Calque_1" xmlns="http://www.w3.org/2000/svg" xmlns:xlink="http://www.w3.org/1999/xlink" x="0px" y="0px"
	 viewBox="0 0 512 512" style="enable-background:new 0 0 512 512;" xml:space="preserve">
<style type="text/css">
	.st0{fill:#FFFFFF;}
</style>
<g id="Line">
	<path class="st0" d="M474.5,213.3l4.5-2.3c7.2-3.6,11.7-11,11.7-19v-21.3C490.7,111.8,442.9,64,384,64H128
		C69.1,64,21.3,111.8,21.3,170.7V192c0,8,4.6,15.4,11.7,19l4.5,2.3C61.1,225,70.8,253.5,59.2,277c-4.6,9.4-12.2,17-21.6,21.6
		l-4.5,2.3c-7.2,3.6-11.7,11-11.7,19v21.3C21.3,400.2,69.1,448,128,448l0,0h256c58.9,0,106.7-47.8,106.7-106.7V320
		c0-8-4.6-15.4-11.7-19l-4.5-2.3c-23.6-11.6-33.2-40.1-21.6-63.7C457.5,225.6,465.1,218,474.5,213.3z M448,179.2
		c-42.4,26.4-55.4,82.2-29,124.6c7.3,11.8,17.2,21.7,29,29v8.5c0,35.3-28.7,64-64,64c0,0,0,0,0,0H128c-35.3,0-64-28.7-64-64v-8.5
		c42.4-26.4,55.4-82.2,29-124.6c-7.3-11.8-17.2-21.7-29-29v-8.5c0-35.3,28.7-64,64-64h256c35.3,0,64,28.7,64,64V179.2z"/>
	<path class="st0" d="M301.4,226.1l-18.6-2.6l-8.1-14.9c-5.6-10.4-18.5-14.2-28.9-8.6c-3.7,2-6.7,5-8.6,8.6l-8.1,14.9l-18.6,2.6
		c-11.7,1.6-19.9,12.3-18.3,24c0.7,5,3.1,9.5,6.8,12.9l12.4,11.1l-2.8,15.4c-1.6,8.1,1.5,16.4,8.1,21.3c6.2,4.6,14.3,5.5,21.3,2.3
		l17.1-8.3l17.1,8.3c2.9,1.4,6.1,2.1,9.4,2.1c4.6-0.1,9.1-1.6,12.8-4.5c6.6-4.9,9.8-13.3,8.1-21.3l-2.8-15.4l12.4-11.1
		c8.7-7.9,9.3-21.4,1.4-30.1c-3.4-3.7-7.9-6.1-12.9-6.8H301.4z"/>
</g>
</svg>
