<?xml version="1.0" encoding="utf-8"?>
<!-- Generator: Adobe Illustrator 25.4.1, SVG Export Plug-In . SVG Version: 6.00 Build 0)  -->
<svg version="1.1" id="Calque_1" xmlns="http://www.w3.org/2000/svg" xmlns:xlink="http://www.w3.org/1999/xlink" x="0px" y="0px"
	 viewBox="0 0 150.37 34.2" style="enable-background:new 0 0 150.37 34.2;" xml:space="preserve">
<style type="text/css">
	.st0{fill:#FFFFFF;}
	.st1{fill:#010202;}
</style>
<g>
	<g>
		<g>
			<circle class="st0" cx="9.3" cy="5.89" r="5.89"/>
			<circle class="st0" cx="23.19" cy="5.89" r="5.89"/>
		</g>
		<path class="st0" d="M32.48,14.31v18.31c0,0.87-0.71,1.58-1.58,1.58H1.58C0.71,34.2,0,33.5,0,32.62v-2.01
			c0-0.66,0.67-1.12,1.28-0.88c2.4,0.93,5.01,1.45,7.74,1.45c7.62,0,14.31-3.99,18.08-10c-3.62,2.81-8.16,4.49-13.1,4.49
			c-2.26,0-4.43-0.35-6.47-1C3.04,23.24,0,19.04,0,14.31v0c0-0.87,0.71-1.58,1.58-1.58H30.9C31.78,12.73,32.48,13.44,32.48,14.31z"
			/>
		<path class="st0" d="M42.93,22.07v5.43c0,0.9-1.03,1.4-1.74,0.84l-3.12-2.45l-3.78-2.97c-0.55-0.43-0.55-1.26,0-1.69l3.78-2.97
			l3.12-2.45c0.71-0.55,1.74-0.05,1.74,0.84V22.07z"/>
	</g>
	<g>
		<path class="st1" d="M53.52,13.44h3.7v2.18H50.7V4.02h2.82V13.44z"/>
		<path class="st1" d="M67.21,11.69h-6.39c0.04,0.57,0.23,1.01,0.55,1.31c0.32,0.3,0.72,0.45,1.2,0.45c0.7,0,1.19-0.3,1.47-0.89
			h3.01c-0.15,0.61-0.43,1.15-0.83,1.64c-0.4,0.48-0.91,0.86-1.51,1.14c-0.61,0.28-1.28,0.41-2.03,0.41c-0.9,0-1.71-0.19-2.41-0.58
			c-0.7-0.39-1.26-0.94-1.65-1.65c-0.4-0.72-0.59-1.55-0.59-2.51s0.2-1.79,0.59-2.51c0.39-0.72,0.94-1.27,1.64-1.65
			c0.7-0.39,1.51-0.58,2.43-0.58c0.89,0,1.68,0.19,2.38,0.56c0.69,0.37,1.24,0.91,1.63,1.6c0.39,0.69,0.59,1.5,0.59,2.43
			C67.26,11.13,67.25,11.4,67.21,11.69z M64.37,10.12c0-0.48-0.16-0.87-0.5-1.16c-0.33-0.29-0.74-0.43-1.24-0.43
			c-0.47,0-0.87,0.14-1.2,0.41c-0.33,0.28-0.53,0.67-0.6,1.17H64.37z"/>
		<path class="st1" d="M70.35,15.34c-0.63-0.28-1.12-0.65-1.49-1.13c-0.36-0.48-0.57-1.02-0.61-1.61h2.79
			c0.03,0.32,0.18,0.58,0.45,0.78c0.26,0.2,0.59,0.3,0.97,0.3c0.35,0,0.62-0.07,0.82-0.21c0.19-0.14,0.29-0.32,0.29-0.54
			c0-0.26-0.14-0.46-0.41-0.59c-0.28-0.13-0.72-0.27-1.34-0.42c-0.66-0.15-1.21-0.32-1.65-0.49c-0.44-0.17-0.82-0.44-1.14-0.81
			c-0.32-0.37-0.48-0.87-0.48-1.5c0-0.53,0.15-1.01,0.44-1.45c0.29-0.44,0.72-0.78,1.29-1.03c0.57-0.25,1.24-0.38,2.02-0.38
			c1.16,0,2.07,0.29,2.73,0.86c0.67,0.57,1.05,1.33,1.15,2.28h-2.61c-0.04-0.32-0.18-0.57-0.42-0.76c-0.24-0.19-0.55-0.28-0.93-0.28
			c-0.33,0-0.58,0.06-0.76,0.19c-0.18,0.13-0.26,0.3-0.26,0.52c0,0.26,0.14,0.46,0.42,0.59c0.28,0.13,0.72,0.26,1.31,0.4
			c0.68,0.18,1.24,0.35,1.67,0.52c0.43,0.17,0.81,0.45,1.13,0.83c0.32,0.38,0.49,0.89,0.5,1.53c0,0.54-0.15,1.02-0.45,1.45
			c-0.3,0.42-0.74,0.76-1.3,1c-0.57,0.24-1.23,0.36-1.97,0.36C71.7,15.75,70.98,15.61,70.35,15.34z"/>
		<path class="st1" d="M89.02,4.02v2.26h-4.72v2.44h3.53v2.2h-3.53v4.69h-2.82V4.02H89.02z"/>
		<path class="st1" d="M90.71,5.01c-0.31-0.29-0.47-0.65-0.47-1.08c0-0.44,0.16-0.81,0.47-1.1c0.31-0.29,0.72-0.44,1.21-0.44
			c0.48,0,0.88,0.15,1.2,0.44c0.31,0.29,0.47,0.66,0.47,1.1c0,0.43-0.16,0.79-0.47,1.08c-0.31,0.29-0.71,0.44-1.2,0.44
			C91.43,5.44,91.03,5.3,90.71,5.01z M93.33,6.4v9.22H90.5V6.4H93.33z"/>
		<path class="st1" d="M98.2,3.4v12.22h-2.82V3.4H98.2z"/>
		<path class="st1" d="M114.75,7.34c0.68,0.69,1.02,1.66,1.02,2.89v5.38h-2.81v-5c0-0.59-0.16-1.05-0.47-1.38
			c-0.31-0.32-0.75-0.49-1.3-0.49c-0.55,0-0.98,0.16-1.3,0.49s-0.47,0.78-0.47,1.38v5h-2.81v-5c0-0.59-0.16-1.05-0.47-1.38
			s-0.75-0.49-1.3-0.49c-0.55,0-0.98,0.16-1.3,0.49s-0.47,0.78-0.47,1.38v5h-2.82V6.4h2.82v1.16c0.29-0.39,0.66-0.69,1.12-0.92
			c0.46-0.23,0.99-0.34,1.57-0.34c0.69,0,1.31,0.15,1.86,0.45c0.55,0.3,0.97,0.72,1.28,1.27c0.32-0.51,0.75-0.92,1.3-1.24
			c0.55-0.32,1.15-0.48,1.8-0.48C113.16,6.3,114.07,6.65,114.75,7.34z"/>
		<path class="st1" d="M119.35,15.34c-0.63-0.28-1.12-0.65-1.49-1.13c-0.36-0.48-0.57-1.02-0.61-1.61h2.79
			c0.03,0.32,0.18,0.58,0.45,0.78c0.26,0.2,0.59,0.3,0.97,0.3c0.35,0,0.62-0.07,0.82-0.21c0.19-0.14,0.29-0.32,0.29-0.54
			c0-0.26-0.14-0.46-0.41-0.59c-0.28-0.13-0.72-0.27-1.34-0.42c-0.66-0.15-1.21-0.32-1.65-0.49c-0.44-0.17-0.82-0.44-1.14-0.81
			c-0.32-0.37-0.48-0.87-0.48-1.5c0-0.53,0.15-1.01,0.44-1.45c0.29-0.44,0.72-0.78,1.29-1.03c0.57-0.25,1.24-0.38,2.02-0.38
			c1.16,0,2.07,0.29,2.73,0.86c0.67,0.57,1.05,1.33,1.15,2.28h-2.61c-0.04-0.32-0.18-0.57-0.42-0.76c-0.24-0.19-0.55-0.28-0.93-0.28
			c-0.33,0-0.58,0.06-0.76,0.19c-0.18,0.13-0.26,0.3-0.26,0.52c0,0.26,0.14,0.46,0.42,0.59c0.28,0.13,0.72,0.26,1.31,0.4
			c0.68,0.18,1.24,0.35,1.67,0.52c0.43,0.17,0.81,0.45,1.13,0.83c0.32,0.38,0.49,0.89,0.5,1.53c0,0.54-0.15,1.02-0.45,1.45
			c-0.3,0.42-0.74,0.76-1.3,1c-0.57,0.24-1.23,0.36-1.97,0.36C120.69,15.75,119.97,15.61,119.35,15.34z"/>
		<path class="st1" d="M130.44,8.5c0.36-0.72,0.84-1.27,1.46-1.65c0.62-0.39,1.3-0.58,2.06-0.58c0.61,0,1.16,0.13,1.66,0.38
			c0.5,0.25,0.89,0.59,1.18,1.02V3.4h2.82v12.22h-2.82V14.3c-0.26,0.44-0.64,0.79-1.13,1.06c-0.49,0.26-1.06,0.4-1.71,0.4
			c-0.76,0-1.45-0.2-2.06-0.59c-0.62-0.39-1.1-0.95-1.46-1.67c-0.36-0.72-0.54-1.56-0.54-2.5C129.9,10.05,130.08,9.22,130.44,8.5z
			 M136.22,9.34c-0.39-0.41-0.87-0.61-1.43-0.61c-0.56,0-1.04,0.2-1.43,0.6c-0.39,0.4-0.59,0.96-0.59,1.66c0,0.7,0.2,1.26,0.59,1.68
			c0.39,0.41,0.87,0.62,1.43,0.62c0.56,0,1.04-0.2,1.43-0.61c0.39-0.41,0.59-0.96,0.59-1.67C136.81,10.31,136.61,9.75,136.22,9.34z"
			/>
		<path class="st1" d="M150.32,11.69h-6.39c0.04,0.57,0.23,1.01,0.55,1.31c0.32,0.3,0.72,0.45,1.2,0.45c0.7,0,1.19-0.3,1.47-0.89
			h3.01c-0.15,0.61-0.43,1.15-0.83,1.64c-0.4,0.48-0.91,0.86-1.51,1.14c-0.61,0.28-1.28,0.41-2.03,0.41c-0.9,0-1.71-0.19-2.41-0.58
			c-0.71-0.39-1.26-0.94-1.65-1.65c-0.4-0.72-0.59-1.55-0.59-2.51s0.2-1.79,0.59-2.51c0.39-0.72,0.94-1.27,1.64-1.65
			c0.7-0.39,1.51-0.58,2.43-0.58c0.89,0,1.69,0.19,2.38,0.56c0.69,0.37,1.24,0.91,1.63,1.6c0.39,0.69,0.59,1.5,0.59,2.43
			C150.37,11.13,150.35,11.4,150.32,11.69z M147.48,10.12c0-0.48-0.17-0.87-0.5-1.16c-0.33-0.29-0.74-0.43-1.24-0.43
			c-0.47,0-0.87,0.14-1.2,0.41c-0.33,0.28-0.53,0.67-0.6,1.17H147.48z"/>
		<path class="st1" d="M59.07,25.79c-0.31,0.56-0.78,1.01-1.42,1.35c-0.64,0.34-1.43,0.51-2.38,0.51h-1.75v4.16H50.7v-11.6h4.58
			c0.93,0,1.71,0.16,2.35,0.48c0.64,0.32,1.12,0.76,1.44,1.32c0.32,0.56,0.48,1.21,0.48,1.93C59.53,24.62,59.38,25.24,59.07,25.79z
			 M56.26,25.03c0.26-0.25,0.4-0.61,0.4-1.07s-0.13-0.82-0.4-1.07C56,22.63,55.6,22.5,55.06,22.5h-1.54v2.91h1.54
			C55.6,25.41,56,25.28,56.26,25.03z"/>
		<path class="st1" d="M63.83,19.59v12.22H61V19.59H63.83z"/>
		<path class="st1" d="M74.52,27.81h-6.39c0.04,0.56,0.23,1,0.55,1.29c0.32,0.3,0.72,0.45,1.2,0.45c0.7,0,1.19-0.29,1.47-0.88h3.01
			c-0.15,0.6-0.43,1.13-0.83,1.61c-0.4,0.48-0.91,0.85-1.51,1.12c-0.61,0.27-1.28,0.41-2.03,0.41c-0.9,0-1.71-0.19-2.41-0.57
			c-0.7-0.38-1.26-0.92-1.65-1.63c-0.4-0.71-0.59-1.53-0.59-2.48s0.2-1.77,0.59-2.48c0.39-0.71,0.94-1.25,1.64-1.63
			c0.7-0.38,1.51-0.57,2.43-0.57c0.89,0,1.68,0.18,2.38,0.55c0.69,0.37,1.24,0.9,1.63,1.58c0.39,0.68,0.59,1.48,0.59,2.39
			C74.57,27.25,74.55,27.53,74.52,27.81z M71.67,26.26c0-0.48-0.16-0.86-0.5-1.14c-0.33-0.28-0.74-0.42-1.24-0.42
			c-0.47,0-0.87,0.14-1.2,0.41c-0.33,0.27-0.53,0.66-0.6,1.16H71.67z"/>
		<path class="st1" d="M76.26,21.2c-0.31-0.29-0.47-0.65-0.47-1.08c0-0.44,0.16-0.81,0.47-1.1c0.31-0.29,0.72-0.44,1.21-0.44
			c0.48,0,0.88,0.15,1.2,0.44c0.31,0.29,0.47,0.66,0.47,1.1c0,0.43-0.16,0.79-0.47,1.08c-0.31,0.29-0.71,0.44-1.2,0.44
			C76.98,21.64,76.57,21.49,76.26,21.2z M78.88,22.6v9.22h-2.82V22.6H78.88z"/>
		<path class="st1" d="M89.13,23.55c0.64,0.7,0.97,1.66,0.97,2.88v5.38h-2.81v-5c0-0.62-0.16-1.1-0.48-1.44
			c-0.32-0.34-0.75-0.51-1.29-0.51s-0.97,0.17-1.29,0.51c-0.32,0.34-0.48,0.82-0.48,1.44v5h-2.82V22.6h2.82v1.22
			c0.29-0.41,0.67-0.73,1.16-0.97c0.48-0.24,1.03-0.35,1.64-0.35C87.62,22.5,88.48,22.85,89.13,23.55z"/>
		<path class="st1" d="M102.78,29.77h-4.33l-0.69,2.05H94.8l4.2-11.6h3.27l4.2,11.6h-2.99L102.78,29.77z M102.05,27.59l-1.44-4.25
			l-1.42,4.25H102.05z"/>
		<path class="st1" d="M107.94,21.2c-0.31-0.29-0.47-0.65-0.47-1.08c0-0.44,0.16-0.81,0.47-1.1c0.31-0.29,0.72-0.44,1.21-0.44
			c0.48,0,0.88,0.15,1.2,0.44c0.31,0.29,0.47,0.66,0.47,1.1c0,0.43-0.16,0.79-0.47,1.08c-0.31,0.29-0.71,0.44-1.2,0.44
			C108.66,21.64,108.25,21.49,107.94,21.2z M110.56,22.6v9.22h-2.82V22.6H110.56z"/>
		<path class="st1" d="M116.67,22.94c0.5-0.29,1.05-0.44,1.65-0.44v2.99h-0.78c-0.7,0-1.23,0.15-1.59,0.45
			c-0.35,0.3-0.53,0.83-0.53,1.59v4.28h-2.82V22.6h2.82v1.54C115.76,23.63,116.17,23.23,116.67,22.94z"/>
	</g>
</g>
</svg>
