<?xml version="1.0" encoding="utf-8"?>
<!-- Generator: Adobe Illustrator 25.4.1, SVG Export Plug-In . SVG Version: 6.00 Build 0)  -->
<svg version="1.1" id="Calque_1" xmlns="http://www.w3.org/2000/svg" xmlns:xlink="http://www.w3.org/1999/xlink" x="0px" y="0px"
	 viewBox="0 0 150.4 34.2" style="enable-background:new 0 0 150.4 34.2;" xml:space="preserve">
<style type="text/css">
	.st0{fill:#FFCD00;}
	.st1{fill:#010202;}
</style>
<g>
	<g>
		<g>
			<circle class="st0" cx="9.3" cy="5.9" r="5.9"/>
			<circle class="st0" cx="23.2" cy="5.9" r="5.9"/>
		</g>
		<path class="st0" d="M32.5,14.3v18.3c0,0.9-0.7,1.6-1.6,1.6H1.6c-0.9,0-1.6-0.7-1.6-1.6v-2c0-0.7,0.7-1.1,1.3-0.9
			c2.4,0.9,5,1.5,7.7,1.5c7.6,0,14.3-4,18.1-10c-3.6,2.8-8.2,4.5-13.1,4.5c-2.3,0-4.4-0.4-6.5-1C3,23.2,0,19,0,14.3l0,0
			c0-0.9,0.7-1.6,1.6-1.6h29.3C31.8,12.7,32.5,13.4,32.5,14.3z"/>
		<path class="st0" d="M42.9,22.1v5.4c0,0.9-1,1.4-1.7,0.8l-3.1-2.5l-3.8-3c-0.5-0.4-0.5-1.3,0-1.7l3.8-3l3.1-2.4
			c0.7-0.6,1.7-0.1,1.7,0.8V22.1z"/>
	</g>
	<g>
		<path class="st1" d="M53.5,13.4h3.7v2.2h-6.5V4h2.8V13.4z"/>
		<path class="st1" d="M67.2,11.7h-6.4c0,0.6,0.2,1,0.5,1.3s0.7,0.4,1.2,0.4c0.7,0,1.2-0.3,1.5-0.9h3c-0.2,0.6-0.4,1.1-0.8,1.6
			c-0.4,0.5-0.9,0.9-1.5,1.1c-0.6,0.3-1.3,0.4-2,0.4c-0.9,0-1.7-0.2-2.4-0.6s-1.3-0.9-1.7-1.6C58.2,12.8,58,12,58,11
			s0.2-1.8,0.6-2.5s0.9-1.3,1.6-1.7c0.7-0.4,1.5-0.6,2.4-0.6c0.9,0,1.7,0.2,2.4,0.6c0.7,0.4,1.2,0.9,1.6,1.6
			c0.4,0.7,0.6,1.5,0.6,2.4C67.3,11.1,67.2,11.4,67.2,11.7z M64.4,10.1c0-0.5-0.2-0.9-0.5-1.2c-0.3-0.3-0.7-0.4-1.2-0.4
			c-0.5,0-0.9,0.1-1.2,0.4c-0.3,0.3-0.5,0.7-0.6,1.2L64.4,10.1L64.4,10.1z"/>
		<path class="st1" d="M70.3,15.3c-0.6-0.3-1.1-0.6-1.5-1.1c-0.4-0.5-0.6-1-0.6-1.6H71c0,0.3,0.2,0.6,0.4,0.8c0.3,0.2,0.6,0.3,1,0.3
			c0.3,0,0.6-0.1,0.8-0.2c0.2-0.1,0.3-0.3,0.3-0.5c0-0.3-0.1-0.5-0.4-0.6c-0.3-0.1-0.7-0.3-1.3-0.4c-0.7-0.1-1.2-0.3-1.7-0.5
			S69.3,11,69,10.6c-0.3-0.4-0.5-0.9-0.5-1.5c0-0.5,0.2-1,0.4-1.5s0.7-0.8,1.3-1s1.2-0.4,2-0.4c1.2,0,2.1,0.3,2.7,0.9
			c0.7,0.6,1.1,1.3,1.2,2.3h-2.6c0-0.3-0.2-0.6-0.4-0.8c-0.2-0.2-0.6-0.3-0.9-0.3c-0.3,0-0.6,0.1-0.8,0.2c-0.2,0.1-0.3,0.3-0.3,0.5
			c0,0.3,0.1,0.5,0.4,0.6s0.7,0.3,1.3,0.4c0.7,0.2,1.2,0.4,1.7,0.5s0.8,0.4,1.1,0.8s0.5,0.9,0.5,1.5c0,0.5-0.2,1-0.4,1.4
			c-0.3,0.4-0.7,0.8-1.3,1c-0.6,0.2-1.2,0.4-2,0.4C71.7,15.7,71,15.6,70.3,15.3z"/>
		<path class="st1" d="M89,4v2.3h-4.7v2.4h3.5v2.2h-3.5v4.7h-2.8V4H89z"/>
		<path class="st1" d="M90.7,5c-0.3-0.3-0.5-0.7-0.5-1.1c0-0.4,0.2-0.8,0.5-1.1s0.7-0.4,1.2-0.4c0.5,0,0.9,0.2,1.2,0.4
			c0.3,0.3,0.5,0.7,0.5,1.1c0,0.4-0.2,0.8-0.5,1.1s-0.7,0.4-1.2,0.4C91.4,5.4,91,5.3,90.7,5z M93.3,6.4v9.2h-2.8V6.4H93.3z"/>
		<path class="st1" d="M98.2,3.4v12.2h-2.8V3.4H98.2z"/>
		<path class="st1" d="M114.8,7.3c0.7,0.7,1,1.7,1,2.9v5.4H113v-5c0-0.6-0.2-1.1-0.5-1.4c-0.3-0.3-0.8-0.5-1.3-0.5s-1,0.2-1.3,0.5
			s-0.5,0.8-0.5,1.4v5h-2.8v-5c0-0.6-0.2-1.1-0.5-1.4s-0.8-0.5-1.3-0.5s-1,0.2-1.3,0.5s-0.5,0.8-0.5,1.4v5h-2.8V6.4h2.8v1.2
			c0.3-0.4,0.7-0.7,1.1-0.9s1-0.3,1.6-0.3c0.7,0,1.3,0.2,1.9,0.4c0.6,0.3,1,0.7,1.3,1.3c0.3-0.5,0.8-0.9,1.3-1.2
			c0.6-0.3,1.2-0.5,1.8-0.5C113.2,6.3,114.1,6.6,114.8,7.3z"/>
		<path class="st1" d="M119.3,15.3c-0.6-0.3-1.1-0.6-1.5-1.1c-0.4-0.5-0.6-1-0.6-1.6h2.8c0,0.3,0.2,0.6,0.4,0.8
			c0.3,0.2,0.6,0.3,1,0.3c0.3,0,0.6-0.1,0.8-0.2c0.2-0.1,0.3-0.3,0.3-0.5c0-0.3-0.1-0.5-0.4-0.6c-0.3-0.1-0.7-0.3-1.3-0.4
			c-0.7-0.1-1.2-0.3-1.7-0.5s-0.8-0.4-1.1-0.8c-0.3-0.4-0.5-0.9-0.5-1.5c0-0.5,0.2-1,0.4-1.5s0.7-0.8,1.3-1s1.2-0.4,2-0.4
			c1.2,0,2.1,0.3,2.7,0.9c0.7,0.6,1.1,1.3,1.2,2.3h-2.6c0-0.3-0.2-0.6-0.4-0.8c-0.2-0.2-0.6-0.3-0.9-0.3c-0.3,0-0.6,0.1-0.8,0.2
			c-0.2,0.1-0.3,0.3-0.3,0.5c0,0.3,0.1,0.5,0.4,0.6s0.7,0.3,1.3,0.4c0.7,0.2,1.2,0.4,1.7,0.5s0.8,0.4,1.1,0.8s0.5,0.9,0.5,1.5
			c0,0.5-0.2,1-0.4,1.4c-0.3,0.4-0.7,0.8-1.3,1c-0.6,0.2-1.2,0.4-2,0.4C120.7,15.7,120,15.6,119.3,15.3z"/>
		<path class="st1" d="M130.4,8.5c0.4-0.7,0.8-1.3,1.5-1.7c0.6-0.4,1.3-0.6,2.1-0.6c0.6,0,1.2,0.1,1.7,0.4s0.9,0.6,1.2,1V3.4h2.8
			v12.2h-2.8v-1.3c-0.3,0.4-0.6,0.8-1.1,1.1c-0.5,0.3-1.1,0.4-1.7,0.4c-0.8,0-1.4-0.2-2.1-0.6c-0.6-0.4-1.1-0.9-1.5-1.7
			s-0.5-1.6-0.5-2.5C129.9,10,130.1,9.2,130.4,8.5z M136.2,9.3c-0.4-0.4-0.9-0.6-1.4-0.6s-1,0.2-1.4,0.6c-0.4,0.4-0.6,1-0.6,1.7
			s0.2,1.3,0.6,1.7c0.4,0.4,0.9,0.6,1.4,0.6s1-0.2,1.4-0.6s0.6-1,0.6-1.7C136.8,10.3,136.6,9.7,136.2,9.3z"/>
		<path class="st1" d="M150.3,11.7h-6.4c0,0.6,0.2,1,0.6,1.3s0.7,0.4,1.2,0.4c0.7,0,1.2-0.3,1.5-0.9h3c-0.1,0.6-0.4,1.1-0.8,1.6
			c-0.4,0.5-0.9,0.9-1.5,1.1c-0.6,0.3-1.3,0.4-2,0.4c-0.9,0-1.7-0.2-2.4-0.6c-0.7-0.4-1.3-0.9-1.6-1.6c-0.4-0.7-0.6-1.6-0.6-2.5
			s0.2-1.8,0.6-2.5s0.9-1.3,1.6-1.7c0.7-0.4,1.5-0.6,2.4-0.6c0.9,0,1.7,0.2,2.4,0.6s1.2,0.9,1.6,1.6c0.4,0.7,0.6,1.5,0.6,2.4
			C150.4,11.1,150.4,11.4,150.3,11.7z M147.5,10.1c0-0.5-0.2-0.9-0.5-1.2s-0.7-0.4-1.2-0.4c-0.5,0-0.9,0.1-1.2,0.4
			c-0.3,0.3-0.5,0.7-0.6,1.2L147.5,10.1L147.5,10.1z"/>
		<path class="st1" d="M59.1,25.8c-0.3,0.6-0.8,1-1.4,1.4s-1.4,0.5-2.4,0.5h-1.8v4.2h-2.8V20.2h4.6c0.9,0,1.7,0.2,2.3,0.5
			s1.1,0.8,1.4,1.3s0.5,1.2,0.5,1.9C59.5,24.6,59.4,25.2,59.1,25.8z M56.3,25c0.3-0.2,0.4-0.6,0.4-1.1s-0.1-0.8-0.4-1.1
			c-0.3-0.3-0.7-0.4-1.2-0.4h-1.5v2.9h1.5C55.6,25.4,56,25.3,56.3,25z"/>
		<path class="st1" d="M63.8,19.6v12.2H61V19.6H63.8z"/>
		<path class="st1" d="M74.5,27.8h-6.4c0,0.6,0.2,1,0.6,1.3c0.3,0.3,0.7,0.5,1.2,0.5c0.7,0,1.2-0.3,1.5-0.9h3
			c-0.2,0.6-0.4,1.1-0.8,1.6c-0.4,0.5-0.9,0.9-1.5,1.1c-0.6,0.3-1.3,0.4-2,0.4c-0.9,0-1.7-0.2-2.4-0.6c-0.7-0.4-1.3-0.9-1.7-1.6
			c-0.4-0.7-0.6-1.5-0.6-2.5s0.2-1.8,0.6-2.5s0.9-1.2,1.6-1.6s1.5-0.6,2.4-0.6c0.9,0,1.7,0.2,2.4,0.5c0.7,0.4,1.2,0.9,1.6,1.6
			s0.6,1.5,0.6,2.4C74.6,27.2,74.6,27.5,74.5,27.8z M71.7,26.3c0-0.5-0.2-0.9-0.5-1.1c-0.3-0.3-0.7-0.4-1.2-0.4
			c-0.5,0-0.9,0.1-1.2,0.4c-0.3,0.3-0.5,0.7-0.6,1.2L71.7,26.3L71.7,26.3z"/>
		<path class="st1" d="M76.3,21.2c-0.3-0.3-0.5-0.6-0.5-1.1c0-0.4,0.2-0.8,0.5-1.1s0.7-0.4,1.2-0.4c0.5,0,0.9,0.1,1.2,0.4
			c0.3,0.3,0.5,0.7,0.5,1.1c0,0.4-0.2,0.8-0.5,1.1c-0.3,0.3-0.7,0.4-1.2,0.4C77,21.6,76.6,21.5,76.3,21.2z M78.9,22.6v9.2h-2.8v-9.2
			H78.9z"/>
		<path class="st1" d="M89.1,23.5c0.6,0.7,1,1.7,1,2.9v5.4h-2.8v-5c0-0.6-0.2-1.1-0.5-1.4s-0.8-0.5-1.3-0.5s-1,0.2-1.3,0.5
			s-0.5,0.8-0.5,1.4v5h-2.8v-9.2h2.8v1.2c0.3-0.4,0.7-0.7,1.2-1c0.5-0.2,1-0.4,1.6-0.4C87.6,22.5,88.5,22.8,89.1,23.5z"/>
		<path class="st1" d="M102.8,29.8h-4.3l-0.7,2h-3L99,20.2h3.3l4.2,11.6h-3L102.8,29.8z M102.1,27.6l-1.4-4.2l-1.4,4.2H102.1z"/>
		<path class="st1" d="M107.9,21.2c-0.3-0.3-0.5-0.6-0.5-1.1c0-0.4,0.2-0.8,0.5-1.1s0.7-0.4,1.2-0.4c0.5,0,0.9,0.1,1.2,0.4
			c0.3,0.3,0.5,0.7,0.5,1.1c0,0.4-0.2,0.8-0.5,1.1c-0.3,0.3-0.7,0.4-1.2,0.4C108.7,21.6,108.2,21.5,107.9,21.2z M110.6,22.6v9.2
			h-2.8v-9.2H110.6z"/>
		<path class="st1" d="M116.7,22.9c0.5-0.3,1.1-0.4,1.7-0.4v3h-0.8c-0.7,0-1.2,0.1-1.6,0.5c-0.3,0.3-0.5,0.8-0.5,1.6v4.3h-2.8v-9.2
			h2.8v1.5C115.8,23.6,116.2,23.2,116.7,22.9z"/>
	</g>
</g>
</svg>
